<svg width="200" height="189" fill="none" xmlns="http://www.w3.org/2000/svg"><g clip-path="url(#a)"><path d="M104.5 0C83.832 0 63.628 6.217 46.443 17.864 29.258 29.512 15.864 46.067 7.955 65.436a107.415 107.415 0 0 0-5.947 61.244c4.032 20.562 13.985 39.449 28.6 54.273 14.614 14.825 33.234 24.92 53.505 29.01a103.124 103.124 0 0 0 60.377-6.032c19.095-8.023 35.416-21.609 46.899-39.041C202.871 147.459 209 126.965 209 106c0-28.113-11.01-55.075-30.607-74.953C158.795 11.167 132.215 0 104.5 0Zm0 185.5c-15.501 0-30.654-4.663-43.543-13.398-12.889-8.736-22.934-21.152-28.866-35.679a80.56 80.56 0 0 1-4.46-45.933c3.024-15.421 10.489-29.587 21.45-40.705 10.96-11.118 24.926-18.69 40.129-21.757a77.345 77.345 0 0 1 45.283 4.524c14.321 6.017 26.562 16.206 35.173 29.28 8.612 13.074 13.209 28.444 13.209 44.168-.022 21.078-8.287 41.286-22.98 56.19-14.694 14.904-34.616 23.287-55.395 23.31Z" fill="url(#b)"/><path d="M130.756 106h-19.725a6.486 6.486 0 0 1-4.618-1.94 6.675 6.675 0 0 1-1.913-4.685V79.368a13.264 13.264 0 0 0-.983-5.021 13.115 13.115 0 0 0-2.803-4.257 12.91 12.91 0 0 0-4.196-2.843 12.767 12.767 0 0 0-4.95-.997h-.261c-1.699 0-3.38.338-4.95.997a12.915 12.915 0 0 0-4.196 2.843 13.125 13.125 0 0 0-2.803 4.257 13.273 13.273 0 0 0-.983 5.02v40.016c0 1.722.333 3.428.983 5.02a13.124 13.124 0 0 0 2.803 4.257 12.92 12.92 0 0 0 4.196 2.843c1.57.659 3.251.998 4.95.997h39.449a12.76 12.76 0 0 0 4.949-.997 12.915 12.915 0 0 0 4.197-2.843 13.13 13.13 0 0 0 2.803-4.257c.649-1.592.983-3.298.983-5.02v-.265c0-1.723-.334-3.429-.983-5.021a13.13 13.13 0 0 0-2.803-4.257 12.915 12.915 0 0 0-4.197-2.843 12.76 12.76 0 0 0-4.949-.997Z" fill="url(#c)"/></g><defs><linearGradient id="b" x1="38" y1="29" x2="178" y2="175" gradientUnits="userSpaceOnUse"><stop stop-color="#414141"/><stop offset=".728" stop-color="#262626"/></linearGradient><linearGradient id="c" x1="78" y1="66" x2="137" y2="139" gradientUnits="userSpaceOnUse"><stop stop-color="#404040"/><stop offset="1" stop-color="#282828"/></linearGradient><clipPath id="a"><path fill="#fff" d="M0 0h200v189H0z"/></clipPath></defs></svg>