<svg width="1920" height="2099" fill="none" xmlns="http://www.w3.org/2000/svg"><path d="M-343.886 1208.27C90.915 1498.03 469.462 929.715 783.557 909.026c452.663-29.802 573.063 505.624 794.073 265.114 221-240.506 428.97-450.335 641.58-67.32 212.61 383.02 399.32 179.08 399.32 179.08" stroke="#fff" stroke-opacity=".1" stroke-width=".648" stroke-miterlimit="10"/><path d="M2618.11 1276.07c-3.83-1.5-197.28 209.55-410.16-164.98-212.89-374.526-414.85-185.039-636.48 51.02-222.26 236.16-343.04-269.809-798.827-241.167-315.557 19.934-688.53 556.917-1115.505 270.137" stroke="#fff" stroke-opacity=".1" stroke-width=".655" stroke-miterlimit="10"/><path d="M2617.65 1266.3c-7.66-3.01-207.88 215.14-421.02-150.89-213.13-366.03-409.08-196.885-631.37 34.72-223.51 231.8-344.64-244.723-803.577-217.223C444.701 952.068 77.291 1457.65-341.81 1173.91" stroke="#fff" stroke-opacity=".1" stroke-width=".662" stroke-miterlimit="10"/><path d="M2617.23 1256.5c-11.5-4.5-218.46 220.75-431.87-136.79-213.42-357.543-403.35-208.74-626.31 18.44-224.79 227.44-346.23-219.609-808.327-193.278-318.398 18.359-680.235 492.608-1091.5 211.828" stroke="#fff" stroke-opacity=".1" stroke-width=".669" stroke-miterlimit="10"/><path d="M2616.78 1246.69c-15.3-5.99-229.06 226.34-442.72-122.7-213.67-349.035-397.09-220.049-621.21 2.15-225.54 223.59-347.8-194.513-813.087-169.303C419.941 974.422 63.657 1417.3-339.725 1139.52" stroke="#fff" stroke-opacity=".1" stroke-width=".676" stroke-miterlimit="10"/><path d="M2616.32 1236.91c-19.13-7.52-239.63 231.95-453.58-108.6-213.9-340.567-391.22-231.803-616.1-14.15-226.67 219.36-349.4-169.399-817.829-145.387C407.565 985.584 56.864 1397.1-338.672 1122.35" stroke="#fff" stroke-opacity=".1" stroke-width=".683" stroke-miterlimit="10"/><path d="M2615.9 1227.12c-22.96-9.03-250.24 237.54-464.43-94.51-214.18-332.08-385.38-243.529-611.03-30.46-227.83 215.13-350.99-144.312-822.58-121.44-322.679 16.065-667.827 396.21-1055.5 124.42" stroke="#fff" stroke-opacity=".1" stroke-width=".691" stroke-miterlimit="10"/><path d="M2615.44 1217.31c-26.79-10.52-260.8 243.15-475.26-80.44-214.47-323.589-379.54-255.222-605.93-46.73-229 210.9-352.6-119.196-827.342-97.494-324.112 15.324-663.669 364.074-1043.496 95.314" stroke="#fff" stroke-opacity=".1" stroke-width=".698" stroke-miterlimit="10"/><path d="M2614.99 1207.51c-30.62-12.03-271.41 248.74-486.12-66.35-214.72-315.063-373.71-266.955-600.83-63-230.16 206.67-354.19-94.11-832.092-73.55-325.556 14.51-659.54 331.93-1031.512 66.16" stroke="#fff" stroke-opacity=".1" stroke-width=".705" stroke-miterlimit="10"/><path d="M2614.56 1197.74c-34.46-13.53-281.98 254.34-496.97-52.26-214.99-306.595-367.89-278.681-595.75-79.33-231.33 202.44-355.78-69.023-836.844-49.6-326.989 13.76-655.381 299.79-1019.499 37.02" stroke="#fff" stroke-opacity=".1" stroke-width=".712" stroke-miterlimit="10"/><path d="M2614.11 1187.93c-38.29-15.02-292.59 259.94-507.82-38.16-215.24-298.098-362.07-290.413-590.65-95.63-232.52 198.2-357.39-43.91-841.575-25.62-328.405 12.96-651.252 267.65-1007.515 7.87" stroke="#fff" stroke-opacity=".1" stroke-width=".719" stroke-miterlimit="10"/><path d="M2613.66 1178.13c-42.1-16.52-303.16 265.54-518.68-24.07-215.48-289.6-356.24-302.146-585.55-111.9-233.7 193.93-358.95-18.81-846.317-1.7-329.866 12.2-647.131 235.53-995.539-21.25" stroke="#fff" stroke-opacity=".1" stroke-width=".726" stroke-miterlimit="10"/><path d="M2613.24 1168.33c-45.93-18.02-313.77 271.14-529.53-9.97-215.77-281.113-350.48-313.898-580.48-128.21-234.92 189.69-360.58 6.29-851.097 22.23-331.262 11.45-642.945 203.41-983.498-50.38" stroke="#fff" stroke-opacity=".1" stroke-width=".733" stroke-miterlimit="10"/><path d="M2612.78 1158.55c-49.75-19.54-324.34 276.74-540.38 4.12-216.05-272.615-344.68-325.659-575.37-144.5-236.12 185.44-362.18 31.38-855.857 46.18-332.687 10.67-638.816 171.26-971.515-79.53" stroke="#fff" stroke-opacity=".1" stroke-width=".74" stroke-miterlimit="10"/><path d="M2612.35 1148.75c-53.58-21.04-334.94 282.34-551.23 18.22-216.31-264.156-338.91-337.41-570.26-160.8-237.33 181.17-363.75 56.5-860.61 70.12-334.14 9.89-634.686 139.12-959.539-108.646" stroke="#fff" stroke-opacity=".1" stroke-width=".747" stroke-miterlimit="10"/><path d="M2611.9 1138.95c-57.41-22.55-345.52 287.97-562.08 32.31-216.56-255.658-333.11-349.18-565.16-177.096-238.58 176.906-365.38 81.606-865.37 94.096-335.564 9.11-630.557 106.97-947.518-137.82" stroke="#fff" stroke-opacity=".1" stroke-width=".754" stroke-miterlimit="10"/><path d="M2611.44 1129.17c-61.25-24.05-356.12 293.56-572.92 46.38-216.81-247.189-327.35-360.93-560.07-193.367-239.79 172.627-366.94 106.697-870.083 118.017-337.017 8.33-626.399 74.84-935.543-166.936" stroke="#fff" stroke-opacity=".1" stroke-width=".761" stroke-miterlimit="10"/><path d="M2611.02 1119.37c-65.08-25.54-366.73 299.16-583.78 60.47-217.09-238.663-321.57-372.7-554.99-209.666-241.04 168.376-368.54 131.786-874.835 141.966-338.478 7.58-622.307 42.71-923.567-196.06" stroke="#fff" stroke-opacity=".1" stroke-width=".768" stroke-miterlimit="10"/><path d="M2610.57 1109.57c-68.92-27.05-377.3 304.76-594.63 74.56-217.34-230.165-315.84-384.459-549.89-225.965-242.28 164.085-370.14 156.905-879.586 165.915-339.875 6.81-618.15 10.57-911.555-225.204" stroke="#fff" stroke-opacity=".1" stroke-width=".775" stroke-miterlimit="10"/><path d="M2610.12 1099.76c-72.72-28.54-387.91 310.36-605.49 88.66-217.6-221.705-310.09-396.246-544.78-242.264-243.54 159.794-371.73 181.984-884.338 189.854-341.327 6.03-613.99-21.55-899.57-254.347" stroke="#fff" stroke-opacity=".1" stroke-width=".782" stroke-miterlimit="10"/><path d="M2609.68 1089.99c-76.55-30.04-398.47 315.96-616.33 102.76-217.88-213.219-304.36-408.074-539.71-258.575-244.81 155.495-373.33 207.105-889.096 213.835-342.752 5.25-609.862-53.71-887.558-283.494" stroke="#fff" stroke-opacity=".1" stroke-width=".789" stroke-miterlimit="10"/><path d="M2609.23 1080.19c-80.37-31.57-409.08 321.55-627.18 116.85-218.14-204.721-298.62-419.861-534.61-274.845-246.08 151.175-374.93 232.185-893.848 237.745-344.176 4.48-605.732-85.84-875.583-312.609" stroke="#fff" stroke-opacity=".1" stroke-width=".796" stroke-miterlimit="10"/><path d="M2608.78 1070.38c-84.18-33.03-419.65 327.16-638.04 130.94-218.38-196.21-292.87-431.638-529.5-291.135-247.35 146.875-376.52 257.275-898.6 261.695-345.6 3.7-601.583-117.96-863.569-341.753" stroke="#fff" stroke-opacity=".1" stroke-width=".803" stroke-miterlimit="10"/><path d="M2608.35 1060.61c-88.04-34.57-430.26 332.76-648.92 145.03-218.65-187.75-287.14-443.493-524.39-307.464-248.64 142.544-378.12 282.394-903.351 285.634-347.054 2.93-597.454-150.09-851.586-370.896" stroke="#fff" stroke-opacity=".1" stroke-width=".81" stroke-miterlimit="10"/><path d="M2607.9 1050.81c-91.87-36.07-440.83 338.36-659.77 159.12-218.9-179.26-281.43-455.289-519.3-323.734-249.92 138.214-379.69 307.484-908.101 309.584-348.487 2.18-593.296-182.23-839.574-400.041" stroke="#fff" stroke-opacity=".1" stroke-width=".817" stroke-miterlimit="10"/><path d="M2607.48 1041.01c-95.71-37.57-451.44 343.95-670.62 173.19-219.18-170.74-275.73-467.094-514.23-340.013-251.21 133.883-381.29 332.603-912.853 333.533-349.911 1.4-589.146-214.345-827.569-429.157" stroke="#fff" stroke-opacity=".1" stroke-width=".824" stroke-miterlimit="10"/><path d="M2607.03 1031.2c-99.54-39.067-462.01 349.56-681.48 187.31-219.43-162.26-270.02-478.976-509.13-356.304-252.5 129.551-382.88 357.684-917.603 357.474-351.335.63-585.017-246.485-815.585-458.301" stroke="#fff" stroke-opacity=".1" stroke-width=".831" stroke-miterlimit="10"/><path d="M2606.57 1021.43c-103.35-40.566-472.61 355.15-692.32 201.37-219.68-153.76-264.33-490.809-504.02-372.603C1156.41 975.379 1025.74 1233 487.866 1231.62c-352.789-.16-580.889-278.634-803.602-487.454" stroke="#fff" stroke-opacity=".1" stroke-width=".839" stroke-miterlimit="10"/><path d="M2606.14 1011.63c-107.16-42.092-483.21 360.75-703.17 215.47-219.95-145.28-258.65-502.681-498.92-388.903-255.12 120.812-386.07 407.883-927.107 405.363-354.222-.9-576.768-310.745-791.598-516.561" stroke="#fff" stroke-opacity=".1" stroke-width=".846" stroke-miterlimit="10"/><path d="M2605.69 1001.82c-111.01-43.56-493.79 366.35-714.02 229.57-220.23-136.79-252.94-514.543-493.82-405.174-256.43 116.415-387.68 433.004-931.867 429.314-355.637-1.7-572.601-342.914-779.614-545.715" stroke="#fff" stroke-opacity=".1" stroke-width=".853" stroke-miterlimit="10"/><path d="M2605.24 992.018c-114.83-45.093-504.36 371.952-724.87 243.662-220.48-128.29-247.26-526.442-488.75-421.482-257.76 112.037-389.27 458.092-936.618 453.252-357.041-2.43-568.451-375.014-767.58-574.811" stroke="#fff" stroke-opacity=".1" stroke-width=".86" stroke-miterlimit="10"/><path d="M2604.81 982.25c-118.66-46.594-514.96 377.55-735.72 257.72-220.76-119.79-241.57-538.333-483.64-437.772-259.09 107.63-390.876 483.202-941.379 477.232-358.486-3.25-564.314-407.194-755.617-604.004" stroke="#fff" stroke-opacity=".1" stroke-width=".867" stroke-miterlimit="10"/><path d="M2604.36 972.444c-122.5-48.094-525.57 383.146-746.58 271.846-221-111.32-235.89-550.234-478.54-454.073-260.41 103.195-392.467 508.293-946.121 501.143-359.947-4-560.193-439.303-743.613-633.11" stroke="#fff" stroke-opacity=".1" stroke-width=".874" stroke-miterlimit="10"/><path d="M2603.91 962.638c-126.3-49.586-536.14 388.752-757.43 285.942-221.25-102.83-230.2-562.162-473.44-470.372-261.74 98.788-394.068 533.402-950.881 525.122-361.371-4.78-556.026-471.473-731.6-662.255" stroke="#fff" stroke-opacity=".1" stroke-width=".881" stroke-miterlimit="10"/><path d="M2603.47 952.869c-130.13-51.086-546.74 394.341-768.27 300.011-221.55-94.35-224.53-574.1-468.37-486.652-263.05 94.324-395.659 558.492-955.622 549.042-362.797-5.55-551.906-503.593-719.617-691.408" stroke="#fff" stroke-opacity=".1" stroke-width=".888" stroke-miterlimit="10"/><path d="M2603.02 943.063c-133.96-52.586-557.31 399.947-779.12 314.097-221.81-85.84-218.87-586.026-463.26-502.942-264.4 89.852-397.233 583.582-960.355 572.992-364.258-6.3-547.785-535.704-707.641-720.524" stroke="#fff" stroke-opacity=".1" stroke-width=".895" stroke-miterlimit="10"/><path d="M2602.57 933.257c-137.8-54.087-567.92 405.543-789.97 328.193-222.06-77.34-213.18-597.954-458.16-519.241-265.71 85.388-398.834 608.701-965.107 596.941-365.682-7.08-543.656-567.852-695.665-749.648" stroke="#fff" stroke-opacity=".1" stroke-width=".902" stroke-miterlimit="10"/><path d="M2602.15 923.46c-141.63-55.587-578.49 411.15-800.83 342.29-222.33-68.85-207.52-609.959-453.08-535.55-267.05 80.915-400.426 633.79-969.858 620.88-367.115-7.82-539.507-599.953-683.653-778.782" stroke="#fff" stroke-opacity=".1" stroke-width=".909" stroke-miterlimit="10"/><path d="M2601.69 913.683c-145.46-57.117-589.1 416.737-811.68 356.387-222.58-60.36-201.82-621.916-447.98-551.85-268.38 76.413-402.026 658.9-974.608 644.83-368.531-8.63-535.34-632.123-671.641-807.928" stroke="#fff" stroke-opacity=".1" stroke-width=".916" stroke-miterlimit="10"/><path d="M2601.27 903.886c-149.29-58.617-599.7 422.334-822.56 370.474-222.86-51.87-196.14-633.911-442.89-568.121-269.71 71.912-403.617 683.991-979.359 668.771-369.955-9.4-531.21-664.262-659.656-837.072" stroke="#fff" stroke-opacity=".1" stroke-width=".923" stroke-miterlimit="10"/><path d="M2600.82 894.08c-153.1-60.109-610.28 427.94-833.39 384.57-223.11-43.36-190.45-645.896-437.78-584.412-271.03 67.383-405.219 709.102-984.111 692.722-371.437-10.19-527.091-696.383-647.673-866.227" stroke="#fff" stroke-opacity=".1" stroke-width=".93" stroke-miterlimit="10"/><path d="M2600.36 884.274c-156.92-61.609-620.84 433.546-844.23 398.666-223.39-34.87-184.76-657.919-432.71-600.719-272.34 62.823-406.81 734.189-988.862 716.659-372.84-10.92-522.932-728.512-635.668-895.331" stroke="#fff" stroke-opacity=".1" stroke-width=".937" stroke-miterlimit="10"/><path d="M2599.93 874.505c-160.75-63.109-631.44 439.135-855.08 412.765-223.66-26.42-179.09-669.981-427.63-617.03-273.68 58.294-408.411 759.27-993.622 740.61-374.257-11.73-518.774-760.653-623.656-924.476" stroke="#fff" stroke-opacity=".1" stroke-width=".944" stroke-miterlimit="10"/><path d="M2599.48 864.7c-164.59-64.611-642.02 444.74-865.93 426.83-223.91-17.89-173.41-681.974-422.5-633.29-274.99 53.735-410.013 784.39-998.375 764.55-375.718-12.48-514.673-792.801-611.672-953.621" stroke="#fff" stroke-opacity=".1" stroke-width=".951" stroke-miterlimit="10"/><path d="M2599.03 854.894c-168.39-66.102-652.6 450.346-876.79 440.946-224.15-9.41-167.77-694.442-417.4-649.581-276.37 48.686-411.604 809.471-1003.125 788.501C-75.428 1421.5-208.8 609.818-297.973 451.985" stroke="#fff" stroke-opacity=".1" stroke-width=".958" stroke-miterlimit="10"/><path d="M2598.6 845.125c-172.25-67.639-663.2 455.945-887.63 455.015-224.44-.92-162.04-706.296-412.33-665.89-277.62 44.305-413.177 834.6-1007.876 812.45-378.568-14.04-506.395-857.062-587.684-1011.891" stroke="#fff" stroke-opacity=".1" stroke-width=".965" stroke-miterlimit="10"/><path d="M2598.15 835.319c-176.08-69.14-673.8 461.531-898.49 469.111-224.68 7.57-156.27-718.141-407.22-682.189-278.87 39.953-414.769 859.689-1012.628 836.389-380-14.78-502.237-889.191-575.7-1041.034" stroke="#fff" stroke-opacity=".1" stroke-width=".972" stroke-miterlimit="10"/></svg>