<svg width="95" height="46" fill="none" xmlns="http://www.w3.org/2000/svg"><g clip-path="url(#a)" fill="#fff"><path d="m1.634 17.236 6.6-.022L14.7 37.193l6.093-20.021 6.8-.023 6.267 19.98 6.292-20.022 6.6-.022-9.306 28.031-7.16.024-6.063-18.86-5.937 18.9-7.16.025-9.493-27.969Zm67.141 27.775-23.52.079-.094-28 23.52-.079.02 6-17.12.058.018 5.2 15.12-.051.019 5.6-15.12.05.017 5.2 17.12-.057.02 6Zm16.415-.055-16.8.056-.094-28 16-.053c3.226-.011 5.562.594 7.006 1.816 1.47 1.195 2.21 3.113 2.22 5.753.008 2.747-.812 4.723-2.461 5.928 2.19 1.14 3.291 3.363 3.302 6.67.01 2.72-.717 4.708-2.18 5.967-1.436 1.23-3.767 1.852-6.993 1.863ZM74.77 38.99l10.4-.035c1.12-.004 1.932-.22 2.437-.648.505-.455.756-1.15.753-2.083-.003-.933-.258-1.612-.767-2.037-.508-.425-1.322-.636-2.442-.632l-10.4.035.018 5.4Zm-.037-11 9.4-.032c1.173-.004 2.026-.206 2.558-.608.558-.402.836-1.043.833-1.923-.003-.853-.258-1.48-.766-1.877-.508-.399-1.322-.596-2.442-.592l-9.6.032.017 5ZM.705 9.716l2.448-.008c.149.52.479.905.99 1.152.51.237 1.253.353 2.228.35 1.802-.006 2.701-.412 2.699-1.216-.002-.385-.24-.696-.718-.933-.476-.236-1.31-.454-2.5-.654-1.906-.334-3.216-.755-3.932-1.262C1.216 6.625.862 5.85.858 4.819c-.004-1.212.401-2.103 1.215-2.673.814-.58 2.077-.874 3.788-.88 1.666-.005 2.92.285 3.76.872.84.575 1.354 1.531 1.54 2.868l-2.5.008c-.114-.532-.41-.916-.887-1.153-.466-.248-1.152-.37-2.058-.367-1.689.006-2.532.4-2.53 1.182.002.35.218.633.65.847.442.214 1.242.427 2.399.638 1.973.356 3.329.794 4.067 1.313.739.519 1.11 1.3 1.113 2.342.004 1.224-.423 2.138-1.283 2.741-.86.592-2.184.892-3.975.898-1.722.005-3.015-.285-3.879-.871C1.415 11.997.89 11.04.705 9.716Zm16.533-6.108-.008-2.244 11.645-.039.008 2.244-4.624.016.032 9.656-2.396.008-.033-9.656-4.624.015ZM35.63 1.303l2.397-.008.021 6.528c.004 1.144.273 1.976.808 2.496.534.52 1.385.777 2.552.773 1.168-.004 2.011-.267 2.53-.79.532-.523.795-1.357.791-2.502l-.021-6.528 2.397-.008.022 6.715c.006 1.87-.442 3.232-1.346 4.085-.904.841-2.359 1.266-4.365 1.272-2.006.007-3.47-.407-4.39-1.243-.91-.847-1.368-2.205-1.374-4.075l-.022-6.715Zm18.975 11.836-.04-11.9 5.066-.017c2.131-.007 3.68.458 4.646 1.396.978.937 1.47 2.448 1.477 4.534.007 2.085-.475 3.6-1.447 4.543-.96.944-2.505 1.42-4.636 1.427l-5.066.017Zm2.39-2.252 2.584-.009c1.337-.004 2.305-.296 2.904-.876.599-.592.896-1.54.891-2.842-.004-1.304-.308-2.243-.91-2.82-.603-.587-1.573-.878-2.91-.874l-2.584.009.025 7.412Zm15.995 2.19-.04-11.9 2.397-.008.04 11.9-2.397.008ZM88.665.972c2.13-.008 3.679.469 4.646 1.43.977.96 1.47 2.51 1.477 4.652.007 2.13-.475 3.685-1.446 4.663-.96.967-2.506 1.453-4.636 1.46-2.142.008-3.697-.469-4.663-1.429-.967-.971-1.454-2.522-1.46-4.653-.008-2.142.469-3.696 1.429-4.663.96-.966 2.51-1.453 4.653-1.46Zm-2.829 3.171c-.587.614-.878 1.595-.874 2.944.005 1.349.303 2.328.894 2.938.591.61 1.539.913 2.842.909 1.303-.005 2.249-.314 2.836-.928.587-.614.879-1.595.874-2.944-.004-1.349-.302-2.328-.894-2.938-.591-.621-1.538-.93-2.842-.925-1.303.004-2.248.319-2.836.944Z"/></g><defs><clipPath id="a"><path fill="#fff" d="M0 0h95v46H0z"/></clipPath></defs></svg>