<svg width="100" height="55" fill="none" xmlns="http://www.w3.org/2000/svg"><g clip-path="url(#a)"><path d="M14.72 20.764v3.248H9.093v11.906H5.628V24.012H0v-3.248h14.72ZM29.3 32.671v3.247H16.571V20.764H29.3v3.248h-9.265v2.814h8.183v3.03h-8.183v2.815H29.3Zm9.381-1.732-3.831 4.98h-4.243l5.974-7.73-5.715-7.425h4.2l3.615 4.676 3.616-4.676h4.2L40.78 28.19l5.975 7.728h-4.243l-3.832-4.979Zm13.17 4.98h-3.463V20.763h3.463v5.954h8.551v-5.954h3.464v15.154h-3.464v-5.953h-8.55v5.953Zm16.04-13.53c1.234-1.235 3.204-1.841 5.932-1.841s4.72.606 5.953 1.84c1.234 1.234 1.84 3.226 1.84 5.953 0 2.728-.606 4.698-1.84 5.932-1.233 1.234-3.225 1.861-5.953 1.861-2.727 0-4.697-.627-5.931-1.861s-1.862-3.204-1.862-5.932c0-2.727.628-4.72 1.862-5.953Zm2.642 2.489c-.693.714-1.04 1.883-1.04 3.463s.347 2.75 1.04 3.464c.67.714 1.775 1.082 3.29 1.082 1.516 0 2.62-.368 3.312-1.082.671-.714 1.018-1.883 1.018-3.464 0-1.58-.347-2.75-1.018-3.463-.692-.715-1.797-1.083-3.312-1.083s-2.62.368-3.29 1.083Z" fill="url(#b)"/><path d="M1.918 52.496C.647 51.226 0 49.197 0 46.386c0-2.81.647-4.863 1.918-6.134s3.301-1.896 6.111-1.896c4.907 0 7.36 1.83 7.918 6.022h-3.68c-.513-1.851-1.83-2.676-4.238-2.676-3.122 0-4.46 1.405-4.46 4.683 0 3.279 1.338 4.684 4.46 4.684 2.409 0 3.725-.825 4.238-2.676h3.68c-.558 4.193-3.011 6.022-7.918 6.022-2.81 0-4.84-.647-6.11-1.919Zm29.372-1.65v3.346H18.176V38.578H31.29v3.346h-9.546v2.9h8.43v3.122h-8.43v2.9h9.546Zm5.918 3.346H33.64V38.578h8.029c3.903 0 5.576 1.606 5.576 5.353s-1.673 5.353-5.576 5.353h-4.46v4.907Zm0-12.267v4.014h4.238c1.539 0 2.23-.602 2.23-2.007 0-1.405-.691-2.007-2.23-2.007h-4.238Zm21.416 12.267h-9.368V38.578h8.922c3.59 0 5.13 1.294 5.13 4.238 0 1.539-.469 2.632-1.383 3.3 1.226.648 1.828 1.874 1.828 3.725 0 3.034-1.538 4.35-5.13 4.35Zm-5.8-6.357v3.011h5.8c1.249 0 1.784-.468 1.784-1.517 0-1.048-.535-1.494-1.784-1.494h-5.8Zm0-5.91v2.788h5.242c1.316 0 1.896-.424 1.896-1.405 0-.96-.535-1.383-1.785-1.383h-5.352Zm16.62 12.267h-3.57V38.578h3.57v10.349l8.474-10.349h3.57V54.19h-3.57V43.843L69.444 54.19Zm16.198-1.696c-1.27-1.27-1.918-3.3-1.918-6.11 0-2.81.647-4.863 1.918-6.134 1.272-1.271 3.301-1.896 6.112-1.896 4.906 0 7.36 1.83 7.917 6.022h-3.68c-.513-1.851-1.829-2.676-4.237-2.676-3.123 0-4.461 1.405-4.461 4.683 0 3.279 1.338 4.684 4.46 4.684 2.41 0 3.725-.825 4.238-2.676h3.68c-.557 4.193-3.01 6.022-7.917 6.022-2.81 0-4.84-.647-6.112-1.919Z" fill="url(#c)"/><path d="M10.788 17.98H0V0h10.274c4.135 0 5.908 1.49 5.908 4.88 0 1.772-.54 3.031-1.593 3.802 1.413.744 2.106 2.157 2.106 4.289 0 3.493-1.772 5.009-5.907 5.009ZM4.11 10.66v3.467h6.678c1.438 0 2.054-.54 2.054-1.747s-.616-1.72-2.054-1.72H4.11Zm0-6.807v3.21h6.035c1.516 0 2.184-.488 2.184-1.618 0-1.104-.617-1.592-2.055-1.592H4.11Zm30.13 10.274v3.853H19.138V0h15.103v3.853H23.248v3.339h9.709v3.596h-9.71v3.339h10.994Zm13.237 3.853h-10.53V0h15.41v3.853h-11.3V6.55h6.421c4.495 0 6.421 1.695 6.421 5.702s-1.926 5.728-6.42 5.728Zm-.257-7.578h-6.164v3.725h6.164c1.772 0 2.569-.565 2.569-1.875s-.745-1.85-2.569-1.85Z" fill="url(#d)"/></g><defs><linearGradient id="b" x1="40.808" y1="20.548" x2="40.808" y2="36.135" gradientUnits="userSpaceOnUse"><stop stop-color="#B7FEEF"/><stop offset="1" stop-color="#6FF4D9"/></linearGradient><linearGradient id="c" x1="49.836" y1="38.356" x2="49.836" y2="54.415" gradientUnits="userSpaceOnUse"><stop stop-color="#B7FEEF"/><stop offset="1" stop-color="#6FF4D9"/></linearGradient><linearGradient id="d" x1="26.95" y1="0" x2="26.95" y2="17.98" gradientUnits="userSpaceOnUse"><stop stop-color="#B7FEEF"/><stop offset="1" stop-color="#6FF4D9"/></linearGradient><clipPath id="a"><path fill="#fff" d="M0 0h100v54.794H0z"/></clipPath></defs></svg>