<svg width="97" height="49" fill="none" xmlns="http://www.w3.org/2000/svg"><g clip-path="url(#a)" fill="#fff"><path d="M11.14 28.285 1.648.317l6.6-.022 6.467 19.978L20.807.253l6.8-.023 6.267 19.979L40.167.187l6.6-.022-9.306 28.032-7.16.024-6.063-18.86-5.937 18.9-7.16.024Zm57.629-6.193.02 6-23.52.079-.094-28 23.52-.08.02 6-17.12.058.017 5.2 15.12-.05.02 5.6-15.12.05.017 5.2 17.12-.057Zm16.434 5.945-16.8.056-.094-28 16-.054c6.44-.021 9.208 2.29 9.225 7.57.01 2.76-.824 4.722-2.46 5.928 2.204 1.152 3.292 3.349 3.303 6.669.018 5.44-2.734 7.809-9.174 7.83ZM74.765 16.67l.018 5.4 10.4-.035c2.24-.007 3.197-.85 3.19-2.73-.006-1.88-.968-2.677-3.208-2.67l-10.4.035Zm-.036-10.6.017 5 9.4-.031c2.36-.008 3.397-.771 3.391-2.531-.005-1.72-.968-2.477-3.208-2.47l-9.6.032ZM.711 44.723l2.448-.009c.293 1.036 1.263 1.51 3.218 1.503C8.18 46.21 9.08 45.8 9.077 45c-.003-.765-.838-1.188-3.219-1.588-1.905-.333-3.216-.754-3.914-1.278-.716-.508-1.076-1.272-1.08-2.309-.007-2.43 1.587-3.541 5.004-3.553 3.332-.01 4.934 1.072 5.3 3.74l-2.5.008c-.224-1.07-1.127-1.526-2.946-1.52-1.683.005-2.531.4-2.529 1.181.002.357.224.628.666.848.426.22 1.226.42 2.382.638 1.974.35 3.335.788 4.068 1.312.733.525 1.11 1.306 1.113 2.343.008 2.448-1.671 3.626-5.258 3.638-3.451.012-5.087-1.088-5.453-3.738Zm25.352 1.275.007 2.244-9.928.033-.04-11.9 9.928-.033.008 2.244-7.531.025.009 2.652 6.68-.023.008 2.108-6.681.023.009 2.652 7.53-.026Zm7.306-1.912.014 4.131-2.398.008-.04-11.9 6.376-.021c2.924-.01 4.185 1.04 4.193 3.539.005 1.479-.467 2.5-1.417 3.064.868.423 1.296 1.237 1.3 2.41l.01 2.873-2.38.008-.01-2.77c-.003-.953-.548-1.36-1.823-1.355l-3.825.013Zm-.019-5.525.011 3.298 3.825-.013c1.377-.004 1.953-.516 1.95-1.672-.004-1.156-.584-1.63-1.96-1.626l-3.826.013Zm17.247 9.598-5.31-11.882 2.533-.008 4.112 9.37 4.031-9.398 2.55-.008-5.23 11.917-2.686.01Zm14.696-.05-2.397.009-.04-11.9 2.397-.008.04 11.9Zm4.814-5.965c-.014-4.284 1.799-6.11 6.082-6.124 3.673-.012 5.53 1.342 6 4.4l-2.449.008c-.43-1.511-1.554-2.187-3.543-2.18-2.601.008-3.72 1.185-3.71 3.888.01 2.703 1.135 3.855 3.736 3.846 1.989-.007 3.109-.69 3.528-2.205l2.465-.008c-.465 3.079-2.314 4.445-5.985 4.457-4.284.015-6.11-1.815-6.124-6.082Zm26.85 3.616.008 2.244-9.928.033-.04-11.9 9.928-.033.008 2.244-7.531.025.009 2.652 6.68-.023.008 2.108-6.681.023.009 2.652 7.53-.025Z"/></g><defs><clipPath id="a"><path fill="#fff" d="M0 0h97v49H0z"/></clipPath></defs></svg>