<svg width="211" height="211" fill="none" xmlns="http://www.w3.org/2000/svg"><g clip-path="url(#a)"><path d="M144.204 75.36c-15.275-9.371-39.951-9.371-55.137 0-15.185 9.371-15.094 24.605.181 33.976 15.276 9.371 39.952 9.371 55.137 0 15.185-9.419 15.095-24.605-.181-33.976Zm-7.005 14.754c-1.311.432-2.621.913-3.932 1.345-.813.24-1.31.288-1.672.096a2.39 2.39 0 0 1-.542-.625c-.859-1.49-2.17-2.787-3.932-3.844a11.498 11.498 0 0 0-.769-.433 7.254 7.254 0 0 0-1.853-.769c-2.53-.624-4.79.385-4.474 2.067.136.865.588 1.634 1.13 2.45.904 1.346 1.898 2.692 2.531 4.134 2.124 4.517-2.486 8.986-9.897 9.419-2.667.144-5.198-.192-7.548-1.009-1.039-.337-1.808-.337-2.576.24-.768.529-1.627 1.009-2.44 1.49-.724.432-1.492.48-2.215.048-.542-.289-1.04-.625-1.582-.913-.361-.241-.723-.433-1.084-.673-.769-.481-.678-.961.045-1.442.587-.384 1.175-.721 1.717-1.105 1.31-.817 1.31-.865.226-1.778-1.356-1.154-2.576-2.355-3.344-3.7-.588-1.058-.452-1.298 1.13-1.875 1.175-.384 2.305-.817 3.48-1.201.858-.289 1.355-.337 1.717-.144.226.144.362.336.542.672.769 1.538 2.079 2.884 3.661 4.181.271.24.588.433.859.625.858.529 1.853.913 2.983 1.201 2.937.721 5.558-.528 5.287-2.498-.09-.673-.407-1.25-.813-1.875-.995-1.585-2.305-3.075-2.983-4.757-1.085-2.692-.588-5.142 2.892-7.065 3.977-2.162 8.406-2.306 13.107-.96 1.943.576 1.898.576 3.389-.337.497-.337.994-.625 1.492-.913 1.129-.673 1.536-.673 2.666 0 .362.192.678.432 1.039.624 2.396 1.442 2.396 1.442.046 2.932-1.673 1.01-1.673 1.01-.272 2.21 1.085.914 1.944 1.875 2.577 2.932.497.529.316.961-.588 1.25Zm27.388 31.621c-4.203 2.595-11.028 2.595-15.276 0-4.203-2.595-4.248-6.824-.045-9.419 4.203-2.595 11.027-2.595 15.275 0 4.249 2.595 4.294 6.824.046 9.419ZM84.141 72.332c-4.203 2.596-11.027 2.596-15.275 0-4.248-2.595-4.248-6.824-.046-9.419 4.204-2.595 11.028-2.595 15.276 0 4.203 2.595 4.248 6.824.045 9.42ZM221.757 101.6l-120.442-73.96c-6.96-4.277-18.258-4.277-25.173 0L11.56 67.527c-6.915 4.277-6.87 11.245.09 15.522l120.442 73.96c6.96 4.277 18.258 4.277 25.173 0l64.537-39.887c6.96-4.278 6.915-11.246-.045-15.523Zm-63.181 41.329a15.107 15.107 0 0 0-2.757-2.162c-7.05-4.326-18.484-4.326-25.489 0-.543.336-.995.672-1.492 1.057L35.332 84.395a21.952 21.952 0 0 0 2.576-1.298c7.005-4.325 6.96-11.341-.09-15.666a14.81 14.81 0 0 0-2.441-1.25l38.55-23.836c.588.529 1.266 1.01 2.034 1.49 7.05 4.325 18.484 4.325 25.49 0 .813-.48 1.491-1.01 2.124-1.586l93.822 57.572c-1.265.481-2.395 1.009-3.48 1.682-7.005 4.325-7.005 11.389.091 15.715 1.085.672 2.305 1.201 3.57 1.682l-39.002 24.028ZM8.486 97.851c3.074-1.682 7.82-1.442 10.757.384l125.91 77.276 68.062-42.098c2.938-1.826 7.774-1.826 10.756 0 2.983 1.826 2.983 4.806.046 6.632l-72.356 44.693c-3.525 2.21-9.31 2.21-12.88 0l-2.531-1.538-1.763-1.105L8.261 104.627c-3.074-1.875-3.028-4.998.226-6.776Zm215.621 66.366-72.356 44.693c-3.525 2.211-9.309 2.211-12.88 0l-2.485-1.538-1.808-1.105L8.351 128.799c-3.073-1.874-2.983-4.998.271-6.776 3.028-1.682 7.819-1.441 10.756.385l125.866 77.275 68.062-42.049c2.982-1.827 7.773-1.827 10.756 0 2.983 1.778 3.028 4.757.045 6.583Z" fill="url(#b)"/></g><defs><linearGradient id="b" x1="25" y1="67" x2="189" y2="197" gradientUnits="userSpaceOnUse"><stop stop-color="#5577CD"/><stop offset="1" stop-color="#5577CD"/></linearGradient><clipPath id="a"><path fill="#fff" d="M0 0h211v211H0z"/></clipPath></defs></svg>