<svg width="1920" height="1066" fill="none" xmlns="http://www.w3.org/2000/svg"><g clip-path="url(#a)" stroke="#fff" stroke-opacity=".1" stroke-miterlimit="10"><path d="M-1221.93 410.751C-696.18 16.72-181.61 703.789 214.11 707.864c570.27 5.872 684.31-674.704 978.41-388.134 294.08 286.54 569.71 535.447 810.03 39.82 240.32-495.63 488.82-252.62 488.82-252.62" stroke-width=".669"/><path d="M2491.46 115.64c-3.32 1.53-258.17-247.49-499.15 240.64-240.98 488.112-510.26 256.97-804.73-25.58-295-282.62-410.81 371.801-983.81 367.098-396.94-3.326-905.04-662.838-1423.93-271.828" stroke-width=".674"/><path d="M2491.55 124.36c-6.65 3.06-267.84-251.93-509.48 228.66-241.64 480.586-504.57 267.211-799.4-11.36-295.9-278.65-413.44 349.576-989.2 346.071C-204.7 685.154-706.3 53.24-1218.39 441.22" stroke-width=".679"/><path d="M2491.64 133.08c-9.97 4.59-277.55-256.4-519.81 216.67-242.27 473.07-498.89 277.462-794.07 2.88C880.96 77.9 761.65 679.971 183.14 677.664-216.26 675.867-711.4 71.54-1216.63 456.44" stroke-width=".684"/><path d="M2491.73 141.83c-13.3 6.08-287.22-260.83-530.15 204.69-242.92 465.515-493.19 287.702-788.73 17.07C875.12 92.79 754.1 668.736 172.84 667.568c-400.66-1.049-889.27-577.778-1387.67-195.939" stroke-width=".689"/><path d="M2491.82 150.55c-16.62 7.61-296.89-265.3-540.48 192.7-243.58 457.999-486.96 297.324-783.4 31.31-298.06-267.48-421.38 282.911-1005.4 282.941-401.89-.299-884.03-549.441-1375.6-170.652" stroke-width=".694"/><path d="M2491.91 159.27c-19.98 9.13-306.57-269.76-550.81 180.72-244.25 450.474-481.18 307.445-778.1 45.53C864.13 121.88 738.95 646.206 152.21 647.435c-403.12.449-878.76-521.095-1363.51-145.336" stroke-width=".7"/><path d="M2492 167.98c-23.3 10.67-316.27-274.19-561.14 168.74-244.88 442.928-475.41 317.576-772.78 59.77C858.41 136.65 731.4 634.971 141.9 637.368c-404.34 1.228-873.51-492.748-1351.43-120.05" stroke-width=".705"/><path d="M2492.09 176.7c-26.62 12.2-325.94-278.65-571.47 156.75-245.54 435.413-469.66 327.706-767.45 74.005C852.66 151.42 723.83 623.706 131.57 627.272c-405.6 1.977-868.27-464.412-1339.33-94.764" stroke-width=".71"/><path d="M2492.15 185.42c-29.95 13.72-335.61-283.12-581.81 144.77-246.19 427.887-463.87 337.827-762.11 88.201C846.91 166.19 716.25 612.411 121.27 617.175c-406.82 2.726-863-436.065-1327.26-69.447" stroke-width=".715"/><path d="M2492.24 194.17c-33.27 15.25-345.32-287.56-592.14 132.78-246.85 420.341-458.12 347.958-756.78 102.436C841.16 180.99 708.67 601.206 110.94 607.139c-408.05 3.475-857.76-407.729-1315.17-44.161" stroke-width=".72"/><path d="M2492.33 202.89c-36.6 16.78-354.99-292.02-602.47 120.8-247.48 412.816-452.37 358.079-751.45 116.661C835.44 195.79 701.13 589.941 100.64 597.042c-409.28 4.224-852.49-379.382-1303.1-18.875" stroke-width=".725"/><path d="M2492.42 211.61c-39.92 18.27-364.66-296.46-612.8 108.81-248.14 405.3-446.59 368.24-746.15 130.897C829.66 210.59 693.55 578.677 90.31 586.975c-410.51 5.004-847.26-351.015-1291 6.412" stroke-width=".73"/><path d="M2492.51 220.32c-43.24 19.81-374.36-300.91-623.13 96.84-248.77 397.745-440.88 378.361-740.82 145.092C823.91 225.33 685.98 567.412 80 576.879c-411.76 5.752-841.98-322.669-1278.9 31.728" stroke-width=".736"/><path d="M2492.6 229.04c-46.57 21.33-384.04-305.38-633.46 84.85-249.43 390.229-435.13 388.491-735.49 159.327C818.13 240.13 678.43 556.147 69.7 566.812c-412.99 6.502-836.74-294.322-1266.83 57.014" stroke-width=".741"/><path d="M2492.69 237.79c-49.89 22.86-393.71-309.81-643.8 72.86-250.08 382.683-429.37 398.652-730.16 173.563C812.38 254.96 670.85 544.912 59.4 556.746c-414.22 7.25-831.5-265.986-1254.73 82.3" stroke-width=".746"/><path d="M2492.78 246.51c-53.22 24.39-403.38-314.28-654.13 60.88-250.74 375.158-423.65 408.803-724.83 187.788C806.63 269.76 663.31 533.677 49.07 546.679c-415.45 8.03-826.23-237.639-1242.67 107.587" stroke-width=".751"/><path d="M2492.87 255.23c-56.54 25.91-413.09-318.75-664.46 48.89-251.37 367.642-417.91 418.934-719.5 202.023-308.06-221.583-453.15 16.269-1070.14 30.47-416.71 8.778-820.99-209.303-1230.57 132.902" stroke-width=".756"/><path d="M2492.96 263.95c-59.87 27.44-422.76-323.18-674.79 36.91-252.03 360.087-412.19 429.085-714.2 216.219-308.93-217.749-455.82-5.962-1075.53 9.437-417.94 9.528-815.72-180.956-1218.5 158.189" stroke-width=".761"/><path d="M2493.02 272.67c-63.22 28.94-432.43-327.65-685.12 24.92-252.69 352.571-406.47 439.245-708.87 230.454C789.23 314.13 640.58 499.852 18.1 516.42c-419.16 10.276-810.47-152.62-1206.4 183.475" stroke-width=".766"/><path d="M2493.11 281.38c-66.55 30.47-442.14-332.07-695.45 12.95-253.35 345.045-400.78 449.396-703.54 244.68C783.45 328.96 633 488.617 7.8 506.353c-420.39 11.055-805.2-124.273-1194.33 208.761" stroke-width=".772"/><path d="M2493.2 290.13c-69.87 32-451.81-336.54-705.79.96-253.97 337.5-395.05 459.557-698.2 258.915C777.64 343.79 625.45 477.382-2.5 496.317c-421.65 11.804-799.96-95.907-1182.23 234.077" stroke-width=".777"/><path d="M2493.29 298.85c-73.19 33.53-461.48-341-716.12-11.03-254.63 329.984-389.36 469.718-692.87 273.12-312.44-202.35-466.39-94.853-1097.13-74.72-422.88 12.553-794.72-67.56-1170.14 259.364" stroke-width=".782"/><path d="M2493.38 307.57c-76.52 35.05-471.18-345.44-726.45-23.01-255.27 322.429-383.65 479.899-687.54 287.346C766.05 373.39 610.33 454.852-23.13 476.124c-424.11 13.302-789.46-39.218-1158.07 284.649" stroke-width=".787"/><path d="M2493.47 316.29c-79.84 36.58-480.86-349.91-736.78-35-255.93 314.913-377.96 490.089-682.25 301.611C760.21 388.25 602.75 443.617-33.46 466.087c-425.34 14.081-784.22-10.876-1145.97 309.966" stroke-width=".792"/><path d="M2493.56 325.01c-83.17 38.1-490.53-354.37-747.11-46.98-256.59 307.388-372.27 500.24-676.92 315.806C754.43 403.051 595.18 432.322-43.77 455.99c-426.59 14.83-778.94 17.467-1133.9 335.253" stroke-width=".797"/><path d="M2493.65 333.75c-86.49 39.61-500.2-358.8-757.44-58.96-257.25 299.872-366.58 510.431-671.59 330.042C748.59 417.911 587.63 421.117-54.07 445.954c-427.81 15.579-773.7 45.809-1121.8 360.538" stroke-width=".802"/><path d="M2493.74 342.47c-89.81 41.14-509.91-363.26-767.78-70.94-257.87 292.316-360.88 520.611-666.25 344.237C742.78 432.741 580.05 409.822-64.37 435.827c-429.04 16.328-768.43 74.151-1109.73 385.825" stroke-width=".808"/><path d="M2493.8 351.19c-93.14 42.66-519.58-367.7-778.11-82.93-258.53 284.801-355.23 530.802-660.92 358.472C736.94 447.572 572.48 398.56-74.7 425.761c-430.27 17.077-763.19 102.493-1097.64 411.141" stroke-width=".813"/><path d="M2493.89 359.91c-96.46 44.19-529.25-372.16-788.44-94.91-259.19 277.245-349.54 540.983-655.59 372.698C731.1 462.432 564.93 387.32-85.03 415.694-516.56 433.55-842.98 546.56-1170.6 852.122" stroke-width=".818"/><path d="M2493.97 368.63c-99.78 45.716-538.95-376.63-798.76-106.9-259.82 269.73-343.88 551.234-650.29 386.933C725.27 477.262 557.32 376.06-95.36 405.598c-432.76 18.605-752.68 159.207-1073.47 461.713" stroke-width=".823"/><path d="M2494.06 377.35c-103.13 47.242-548.62-381.07-809.09-118.89-260.48 262.214-338.22 561.425-644.97 401.139C719.43 492.092 549.78 364.76-105.66 395.5c-433.99 19.355-747.44 187.551-1061.37 487.001" stroke-width=".828"/><path d="M2494.16 386.09C2387.7 434.869 1935.86.57 1674.72 255.23c-261.13 254.658-332.55 571.605-639.63 415.364C713.59 507.012 542.2 353.56-115.97 385.46c-435.21 20.108-742.16 215.896-1049.3 512.321" stroke-width=".833"/><path d="M2494.24 394.81c-109.78 50.275-567.96-389.99-829.76-142.85-261.79 247.143-326.89 581.826-634.3 429.599C707.75 521.872 534.65 342.29-126.27 375.4-562.74 396.28-863.2 619.632-1163.47 913" stroke-width=".839"/><path d="M2494.33 403.53c-113.1 51.801-577.67-394.42-840.09-154.83-262.42 239.617-321.24 592.067-628.97 443.825C701.91 536.763 527.11 331.03-136.57 365.3c-437.7 21.63-731.66 272.578-1025.13 562.89" stroke-width=".844"/><path d="M2494.43 412.249C2377.99 465.578 1907.08 13.36 1644 245.43c-263.08 232.072-315.58 602.287-623.64 458.06C696.04 551.623 519.53 319.76-146.9 355.23c-438.93 22.39-726.42 300.923-1013.04 588.18" stroke-width=".849"/><path d="M2494.51 420.967C2374.76 475.824 1897.5 17.65 1633.76 242.17c-263.74 224.546-309.95 612.528-618.34 472.255C690.17 566.483 511.96 308.5-157.23 345.14c-440.16 23.13-721.18 329.259-1000.97 613.489" stroke-width=".854"/><path d="M2494.57 429.715C2371.49 486.1 1887.85 21.93 1623.49 238.96c-264.37 217.03-304.29 622.779-613.01 486.491C684.3 581.433 504.38 297.26-167.53 335.1c-441.39 23.91-715.91 357.604-988.87 638.779" stroke-width=".859"/><path d="M2494.66 438.434c-126.4 57.912-616.39-412.254-881.42-202.744-265.02 209.515-298.65 633.029-607.67 500.726C678.43 596.353 496.8 286.03-177.87 325.04c-442.64 24.65-710.66 385.97-976.77 664.059" stroke-width=".864"/><path d="M2494.75 447.152C2365.03 506.593 1868.69 30.47 1603 232.43c-265.68 201.959-293 643.27-602.34 514.951C672.56 611.273 489.23 274.79-188.17 314.97c-443.87 25.4-705.39 414.316-964.7 689.38" stroke-width=".869"/><path d="M2494.84 455.871c-133.05 60.968-635.76-421.15-902.08-226.711-266.34 194.414-287.37 653.551-597.016 529.157C666.69 626.163 481.68 263.5-198.47 304.87c-445.1 26.16-700.15 442.661-952.6 714.67" stroke-width=".875"/><path d="M2494.93 464.589c-136.37 62.466-645.44-425.61-912.41-238.689-266.98 186.888-281.74 663.821-591.717 543.382C660.82 641.083 474.1 252.23-208.83 294.81c-446.33 26.9-694.88 470.997-940.54 739.95" stroke-width=".88"/><path d="M2495.02 473.337c-139.7 63.995-655.11-430.047-922.74-250.677-267.64 179.372-276.11 674.102-586.389 557.617C654.95 656.033 466.53 241-219.13 284.74c-447.59 27.68-689.64 499.342-928.44 765.24" stroke-width=".885"/><path d="M2495.11 482.056C2352.06 547.578 1830.33 47.55 1562.04 219.4c-268.3 171.82-270.48 684.373-581.06 571.843-331.9-120.26-522-561.483-1210.41-516.573-448.82 28.43-684.41 527.688-916.37 790.56" stroke-width=".89"/><path d="M2495.2 490.774c-146.38 67.05-674.49-438.944-943.41-274.644-268.92 164.3-264.85 694.653-575.721 586.078C643.21 685.933 451.4 218.5-239.74 264.61c-450.03 29.18-679.13 556.024-904.27 815.84" stroke-width=".895"/><path d="M2495.29 499.492c-149.7 68.579-684.16-443.412-953.74-286.622-269.58 156.78-259.22 704.954-570.393 600.274C637.34 700.853 443.86 207.23-250.04 254.51c-451.26 29.93-673.89 584.369-892.2 841.13" stroke-width=".9"/><path d="M2495.38 508.211c-153.02 70.106-693.83-447.87-964.07-298.611-270.24 149.23-253.59 715.264-565.064 614.509C631.47 715.833 436.31 195.97-260.34 244.41c-452.52 30.71-668.62 612.715-880.1 866.42" stroke-width=".905"/><path d="M2495.44 516.929c-156.35 71.634-703.53-452.309-974.4-310.599-270.87 141.71-247.96 725.575-559.765 628.744C625.54 730.813 428.67 184.7-270.73 234.35c-453.75 31.45-663.38 641.08-868.01 891.73" stroke-width=".91"/><path d="M2495.53 525.677C2335.86 598.81 1782.32 68.91 1510.8 203.1c-271.53 134.19-242.33 735.905-554.436 642.97C619.67 745.823 421.13 173.5-281.03 224.31c-454.98 32.21-658.11 669.426-855.94 917.02" stroke-width=".916"/><path d="M2495.62 534.396c-163 74.66-722.88-461.236-995.06-334.566-272.19 126.64-236.7 746.216-549.108 657.175C613.77 760.773 413.55 162.2-291.33 214.18c-456.21 32.96-652.87 697.772-843.84 942.3" stroke-width=".921"/><path d="M2495.71 543.114c-166.32 76.188-732.58-465.664-1005.4-346.544-272.84 119.12-231.07 756.547-543.769 671.4C607.9 775.753 406 150.94-301.64 204.12c-457.46 33.73-647.62 726.107-831.76 967.61" stroke-width=".926"/><path d="M2495.8 551.832C2326.15 629.549 1753.54 81.7 1480.07 193.3c-273.47 111.6-225.44 766.887-538.44 685.636C602.03 790.763 398.46 139.7-311.94 194.05c-458.69 34.48-642.35 754.453-819.67 992.9" stroke-width=".931"/><path d="M2495.89 560.551C2322.92 639.795 1743.96 85.98 1469.83 190.04c-274.13 104.05-219.81 777.248-533.111 699.861C596.17 805.773 390.88 128.44-322.24 183.98c-459.92 35.24-637.11 782.798-807.6 1018.19" stroke-width=".936"/><path d="M2495.98 569.299c-176.32 80.742-761.63-479.03-1036.39-382.529-274.79 96.53-214.18 787.618-527.812 714.096C590.27 820.813 383.3 117.17-332.57 173.89c-461.15 35.98-631.85 811.134-795.5 1043.47" stroke-width=".941"/><path d="M2496.07 578.017C2316.45 660.318 1724.76 94.52 1449.35 183.53c-275.42 88.99-208.52 797.989-522.484 728.302C584.4 835.853 375.73 105.91-342.9 163.82c-462.41 36.76-626.61 839.48-783.44 1068.79" stroke-width=".947"/><path d="M2496.16 586.736C2313.22 670.534 1715.18 98.81 1439.1 180.27c-276.07 81.46-202.89 808.349-517.145 742.527C578.53 850.893 368.18 94.67-353.2 153.75c-463.64 37.51-621.34 867.83-771.34 1094.08" stroke-width=".952"/><path d="M2496.22 595.454C2309.92 680.78 1705.57 103.06 1428.83 177c-276.71 73.94-197.26 818.72-511.82 756.763C572.63 865.933 360.57 83.41-363.54 143.69c-464.86 38.26-616.09 896.19-759.23 1119.36" stroke-width=".957"/><path d="M2496.31 604.172c-189.62 86.855-800.35-496.852-1077.72-430.432-277.36 66.39-191.63 829.11-506.49 770.988C566.79 880.973 353.03 72.14-373.84 133.59c-466.09 39.01-610.85 924.54-747.17 1144.65" stroke-width=".962"/><path d="M2496.4 612.921C2303.46 701.303 1686.37 111.63 1408.35 170.5c-278.03 58.87-185.97 839.51-501.16 785.223C560.92 896.073 345.48 60.94-384.14 123.55c-467.35 39.76-605.58 952.88-735.07 1169.97" stroke-width=".967"/><path d="M2496.49 621.639c-196.27 89.91-819.7-505.759-1098.38-454.399-278.69 51.35-180.34 849.9-495.86 799.419-347.2-55.546-564.34-917.02-1296.72-853.199-468.58 40.53-600.34 981.22-723 1195.25" stroke-width=".972"/><path d="M2496.58 630.358c-199.59 91.437-829.4-510.188-1108.72-466.388-279.34 43.8-174.67 860.3-490.52 813.654C549.18 926.213 330.33 38.38-404.8 103.39c-469.81 41.29-595.07 1009.56-710.91 1220.54" stroke-width=".977"/><path d="M2496.67 639.076C2293.75 732.042 1657.6 124.42 1377.62 160.7c-279.97 36.29-169.04 870.73-485.19 827.889-349.12-47.307-569.68-961.45-1307.53-895.3-471.03 42.041-589.83 1037.911-698.84 1245.861" stroke-width=".983"/><path d="M2496.76 647.794c-206.24 94.494-848.75-519.114-1129.38-490.354-280.63 28.76-163.45 881.69-479.86 842.115C537.38 957.011 315.21 15.88-425.41 83.23c-472.25 42.78-584.55 1066.24-686.73 1271.14" stroke-width=".988"/><path d="M2496.85 656.513c-209.57 95.992-858.42-523.553-1139.71-502.343-281.29 21.22-157.76 891.94-474.53 856.32C531.54 971.902 307.63 4.61-435.74 73.16c-473.51 43.56-579.32 1094.59-674.67 1296.43" stroke-width=".993"/><path d="M2496.94 665.261c-212.89 97.52-868.12-528.011-1150.04-514.321-281.92 13.69-152.07 902.18-469.21 870.54C525.76 986.822 300.08-6.62-446.01 63.1c-474.74 44.31-574.05 1122.93-662.57 1321.71" stroke-width=".998"/><path d="M2497 673.979C2280.79 773.027 1619.2 141.5 1336.63 147.67c-282.58 6.17-146.41 912.43-463.91 884.78C519.89 1001.71 292.48-17.89-456.37 53c-475.97 45.06-568.81 1151.3-650.47 1347" stroke-width="1.003"/></g><defs><clipPath id="a"><path fill="#fff" transform="rotate(180 960 533)" d="M0 0h1920v1066H0z"/></clipPath></defs></svg>