<svg width="1920" height="1066" fill="none" xmlns="http://www.w3.org/2000/svg"><g clip-path="url(#a)" stroke="#fff" stroke-opacity=".1" stroke-miterlimit="10"><path d="M3141.93 655.249c-525.75 394.031-1040.32-293.038-1436.04-297.113-570.27-5.872-684.31 674.704-978.413 388.134-294.076-286.54-569.706-535.447-810.028-39.82-240.322 495.63-488.819 252.62-488.819 252.62" stroke-width=".669"/><path d="M-571.46 950.36c3.324-1.53 258.17 247.49 499.151-240.64 240.981-488.112 510.261-256.97 804.727 25.58 295.002 282.62 410.812-371.801 983.812-367.098 396.94 3.326 905.04 662.838 1423.93 271.828" stroke-width=".674"/><path d="M-571.55 941.64c6.648-3.06 267.843 251.93 509.483-228.66 241.64-480.586 504.571-267.211 799.396 11.36 295.901 278.65 413.441-349.576 989.201-346.071 398.17 2.577 899.77 634.491 1411.86 246.511" stroke-width=".679"/><path d="M-571.64 932.92c9.973-4.59 277.546 256.4 519.815-216.67 242.268-473.07 498.881-277.462 794.065-2.88 296.8 274.73 416.11-327.341 994.62-325.034 399.4 1.797 894.54 606.124 1399.77 221.224" stroke-width=".684"/><path d="M-571.729 924.17c13.296-6.08 287.218 260.83 530.145-204.69 242.928-465.515 493.192-287.702 788.736-17.07C1044.88 973.21 1165.9 397.264 1747.16 398.432c400.66 1.049 889.27 577.778 1387.67 195.939" stroke-width=".689"/><path d="M-571.819 915.45c16.62-7.61 296.891 265.3 540.477-192.7 243.586-457.999 486.963-297.324 783.405-31.31C1050.12 958.92 1173.44 408.529 1757.46 408.499c401.89.299 884.03 549.441 1375.6 170.652" stroke-width=".694"/><path d="M-571.909 906.73c19.974-9.13 306.564 269.76 550.81-180.72 244.244-450.474 481.182-307.445 778.103-45.53C1055.87 944.12 1181.05 419.794 1767.79 418.565c403.12-.449 878.76 521.095 1363.51 145.336" stroke-width=".7"/><path d="M-571.999 898.02c23.299-10.67 316.267 274.19 561.14-168.74 244.875-442.928 475.404-317.576 772.774-59.77C1061.59 929.35 1188.6 431.029 1778.1 428.632c404.34-1.228 873.51 492.748 1351.43 120.05" stroke-width=".705"/><path d="M-572.089 889.3c26.623-12.2 325.94 278.65 571.473-156.75 245.532-435.413 469.653-327.706 767.443-74.005C1067.34 914.58 1196.17 442.294 1788.43 438.728c405.6-1.977 868.27 464.412 1339.33 94.764" stroke-width=".71"/><path d="M-572.149 880.58c29.947-13.72 335.613 283.12 581.804-144.77 246.192-427.887 463.874-337.827 762.113-88.201C1073.09 899.81 1203.75 453.589 1798.73 448.825c406.82-2.726 863 436.065 1327.26 69.447" stroke-width=".715"/><path d="M-572.238 871.83c33.27-15.25 345.315 287.56 592.135-132.78 246.85-420.341 458.124-347.958 756.782-102.436C1078.84 885.01 1211.33 464.794 1809.06 458.861c408.05-3.475 857.76 407.729 1315.17 44.161" stroke-width=".72"/><path d="M-572.328 863.11c36.595-16.78 354.987 292.02 602.467-120.8C277.618 329.494 482.513 384.231 781.59 625.649c302.97 244.561 437.28-149.59 1037.77-156.691 409.28-4.224 852.49 379.382 1303.1 18.875" stroke-width=".725"/><path d="M-572.418 854.39c39.919-18.27 364.66 296.46 612.798-108.81 248.139-405.3 446.595-368.24 746.152-130.897C1090.34 855.41 1226.45 487.323 1829.69 479.025c410.51-5.004 847.26 351.015 1291-6.412" stroke-width=".73"/><path d="M-572.508 845.68c43.243-19.81 374.363 300.91 623.13-96.84C299.39 351.095 491.497 370.479 791.443 603.748 1096.09 840.67 1234.02 498.588 1840 489.121c411.76-5.752 841.98 322.669 1278.9-31.728" stroke-width=".736"/><path d="M-572.598 836.96c46.567-21.33 384.036 305.38 633.462-84.85 249.426-390.229 435.125-388.491 735.49-159.327 305.516 233.087 445.216-82.93 1053.946-93.595 412.99-6.502 836.74 294.322 1266.83-57.014" stroke-width=".741"/><path d="M-572.688 828.21c49.891-22.86 393.709 309.81 643.794-72.86C321.19 372.667 500.48 356.698 801.265 581.787 1107.62 811.04 1249.15 521.088 1860.6 509.254c414.22-7.25 831.5 265.986 1254.73-82.3" stroke-width=".746"/><path d="M-572.778 819.49c53.216-24.39 403.382 314.28 654.125-60.88 250.744-375.158 423.656-408.803 724.83-187.788 307.193 225.418 450.513-38.499 1064.753-51.501 415.45-8.03 826.23 237.639 1242.67-107.587" stroke-width=".751"/><path d="M-572.867 810.77c56.539-25.91 413.084 318.75 664.456-48.89 251.373-367.642 417.906-418.934 719.499-202.023 308.062 221.583 453.152-16.269 1070.142-30.47 416.71-8.778 820.99 209.303 1230.57-132.902" stroke-width=".756"/><path d="M-572.957 802.05c59.863-27.44 422.757 323.18 674.788-36.91C353.862 405.053 514.017 336.055 816.03 548.921c308.93 217.749 455.82 5.962 1075.53-9.437 417.94-9.528 815.72 180.956 1218.5-158.189" stroke-width=".761"/><path d="M-573.017 793.33c63.217-28.94 432.43 327.65 685.12-24.92 252.69-352.571 406.466-439.245 708.867-230.454 309.8 213.914 458.45 28.192 1080.93 11.624 419.16-10.276 810.47 152.62 1206.4-183.475" stroke-width=".766"/><path d="M-573.107 784.62c66.542-30.47 442.133 332.07 695.451-12.95 253.349-345.045 400.777-449.396 703.537-244.68C1136.55 737.04 1287 577.383 1912.2 559.647c420.39-11.055 805.2 124.273 1194.33-208.761" stroke-width=".772"/><path d="M-573.197 775.87c69.866-32 451.806 336.54 705.783-.96 253.978-337.5 395.057-459.557 698.207-258.915C1142.36 722.21 1294.55 588.618 1922.5 569.683c421.65-11.804 799.96 95.907 1182.23-234.077" stroke-width=".777"/><path d="M-573.287 767.15c73.19-33.53 461.479 341 716.115 11.03 254.637-329.984 389.367-469.718 692.876-273.12 312.436 202.35 466.386 94.853 1097.126 74.72 422.88-12.553 794.72 67.56 1170.14-259.364" stroke-width=".782"/><path d="M-573.376 758.43c76.513-35.05 471.18 345.44 726.446 23.01 255.265-322.429 383.647-479.899 687.545-287.346C1153.95 692.61 1309.67 611.148 1943.13 589.876c424.11-13.302 789.46 39.218 1158.07-284.649" stroke-width=".787"/><path d="M-573.466 749.71c79.838-36.58 480.853 349.91 736.778 35 255.924-314.913 377.956-490.089 682.244-301.611C1159.79 677.75 1317.25 622.383 1953.46 599.913c425.34-14.081 784.22 10.876 1145.97-309.966" stroke-width=".792"/><path d="M-573.556 740.99c83.162-38.1 490.526 354.37 747.109 46.98C430.136 480.582 545.82 287.73 850.468 472.164 1165.57 662.949 1324.82 633.678 1963.77 610.01c426.59-14.83 778.94-17.467 1133.9-335.253" stroke-width=".797"/><path d="M-573.646 732.25c86.486-39.61 500.2 358.8 757.441 58.96 257.242-299.872 366.577-510.431 671.584-330.042C1171.41 648.089 1332.37 644.883 1974.07 620.046c427.81-15.579 773.7-45.809 1121.8-360.538" stroke-width=".802"/><path d="M-573.736 723.53c89.81-41.14 509.902 363.26 767.773 70.94C451.908 502.154 554.924 273.859 860.29 450.233c316.93 183.026 479.66 205.945 1124.08 179.94 429.04-16.328 768.43-74.151 1109.73-385.825" stroke-width=".808"/><path d="M-573.796 714.81c93.134-42.66 519.575 367.7 778.105 82.93 258.529-284.801 355.227-530.802 660.923-358.472C1183.06 618.428 1347.52 667.44 1994.7 640.239c430.27-17.077 763.19-102.493 1097.64-411.141" stroke-width=".813"/><path d="M-573.886 706.09C-477.427 661.9-44.638 1078.25 214.55 801c259.189-277.245 349.538-540.983 655.593-372.698C1188.9 603.568 1355.07 678.68 2005.03 650.306c431.53-17.856 757.95-130.866 1085.57-436.428" stroke-width=".818"/><path d="M-573.975 697.37c99.782-45.716 538.95 376.63 798.767 106.9S568.67 253.036 875.084 417.337C1194.73 588.738 1362.68 689.94 2015.36 660.402c432.76-18.605 752.68-159.207 1073.47-461.713" stroke-width=".823"/><path d="M-574.065 688.65c103.136-47.242 548.623 381.07 809.099 118.89C495.51 545.326 573.251 246.115 879.995 406.401 1200.57 573.908 1370.22 701.24 2025.66 670.5c433.99-19.355 747.44-187.551 1061.37-487.001" stroke-width=".828"/><path d="M-574.155 679.91c106.46-48.779 558.296 385.52 819.431 130.86 261.134-254.658 332.557-571.605 639.63-415.364C1206.41 558.988 1377.8 712.44 2035.97 680.54c435.21-20.108 742.16-215.896 1049.3-512.321" stroke-width=".833"/><path d="M-574.245 671.19c109.785-50.275 567.969 389.99 829.762 142.85 261.794-247.143 326.898-581.826 634.301-429.599C1212.25 544.128 1385.35 723.71 2046.27 690.6c436.47-20.88 736.93-244.232 1037.2-537.6" stroke-width=".839"/><path d="M-574.335 662.47c113.109-51.801 577.671 394.42 840.094 154.83 262.423-239.617 321.238-592.067 628.97-443.825C1218.09 529.237 1392.89 734.97 2056.57 700.7c437.7-21.63 731.66-272.578 1025.13-562.89" stroke-width=".844"/><path d="M-574.425 653.751c116.433-53.329 587.344 398.889 850.426 166.819C539.082 588.498 591.579 218.283 899.64 362.51c324.32 151.867 500.83 383.73 1167.26 348.26 438.93-22.39 726.42-300.923 1013.04-588.18" stroke-width=".849"/><path d="M-574.514 645.033c119.756-54.857 597.016 403.317 860.757 178.797 263.74-224.546 309.948-612.528 618.338-472.255C1229.83 499.517 1408.04 757.5 2077.23 720.86c440.16-23.13 721.18-329.259 1000.97-613.489" stroke-width=".854"/><path d="M-574.574 636.285c123.08-56.385 606.72 407.785 871.088 190.755 264.37-217.03 304.288-622.779 613.009-486.491C1235.7 484.567 1415.62 768.74 2087.53 730.9c441.39-23.91 715.91-357.604 988.87-638.779" stroke-width=".859"/><path d="M-574.664 627.566c126.405-57.912 616.392 412.254 881.42 202.744 265.028-209.515 298.658-633.029 607.678-500.726C1241.57 469.647 1423.2 779.97 2097.87 740.96c442.64-24.65 710.66-385.97 976.77-664.06" stroke-width=".864"/><path d="M-574.754 618.848c129.729-59.441 626.065 416.682 891.752 214.722C582.685 631.611 609.996 190.3 919.345 318.619 1247.44 454.727 1430.77 791.21 2108.17 751.03c443.87-25.4 705.39-414.316 964.7-689.378" stroke-width=".869"/><path d="M-574.844 610.129C-441.791 549.161 60.924 1031.28 327.24 836.84c266.345-194.414 287.368-653.551 597.016-529.157C1253.31 439.837 1438.32 802.5 2118.47 761.13c445.1-26.16 700.15-442.661 952.6-714.668" stroke-width=".875"/><path d="M-574.934 601.411c136.377-62.466 645.44 425.609 912.415 238.689C604.456 653.212 619.22 176.279 929.197 296.718 1259.18 424.917 1445.9 813.77 2128.83 771.19c446.33-26.9 694.88-470.997 940.54-739.948" stroke-width=".88"/><path d="M-575.023 592.663C-435.322 528.668 80.09 1022.71 347.723 843.34c267.633-179.372 276.108-674.102 586.386-557.617C1265.05 409.967 1453.47 825 2139.13 781.26c447.59-27.68 689.64-499.342 928.44-765.237" stroke-width=".885"/><path d="M-575.113 583.944C-432.058 518.422 89.673 1018.45 357.965 846.6 626.257 674.78 628.443 162.227 939.02 274.757c331.9 120.26 522 561.483 1210.41 516.573C2598.25 762.9 2833.84 263.642 3065.8.773" stroke-width=".89"/><path d="M-575.203 575.226c146.379-67.05 674.488 438.944 943.41 274.644 268.921-164.3 264.848-694.653 575.724-586.078C1276.79 380.067 1468.6 847.5 2159.74 801.39c450.03-29.18 679.13-556.024 904.27-815.837" stroke-width=".895"/><path d="M-575.293 566.508c149.703-68.579 684.162 443.412 953.741 286.622 269.58-156.78 259.219-704.954 570.395-600.274C1282.66 365.147 1476.14 858.77 2170.04 811.49c451.26-29.93 673.89-584.369 892.2-841.126" stroke-width=".9"/><path d="M-575.383 557.789C-422.355 487.683 118.451 1005.66 388.69 856.4c270.239-149.23 253.589-715.264 565.064-614.509C1288.53 350.167 1483.69 870.03 2180.34 821.59c452.52-30.71 668.62-612.715 880.1-866.416" stroke-width=".905"/><path d="M-575.443 549.071c156.352-71.634 703.537 452.309 974.405 310.599C669.829 717.96 646.92 134.095 958.725 230.926 1294.46 335.187 1491.33 881.3 2190.73 831.65c453.75-31.45 663.38-641.08 868.01-891.726" stroke-width=".91"/><path d="M-575.533 540.323C-415.857 467.19 137.677 997.09 409.204 862.9 680.73 728.71 651.532 126.995 963.636 219.93 1300.33 320.177 1498.87 892.5 2201.03 841.69c454.98-32.21 658.11-669.426 855.94-917.015" stroke-width=".916"/><path d="M-575.622 531.604c162.999-74.66 722.882 461.236 995.067 334.566 272.186-126.64 236.699-746.216 549.103-657.175C1306.23 305.227 1506.45 903.8 2211.33 851.82c456.21-32.96 652.87-697.772 843.84-942.305" stroke-width=".921"/><path d="M-575.712 522.886C-409.389 446.698 156.873 988.55 429.687 869.43c272.844-119.12 231.069-756.547 543.772-671.4C1312.1 290.247 1514 915.06 2221.64 861.88c457.46-33.73 647.62-726.107 831.76-967.615" stroke-width=".926"/><path d="M-575.802 514.168C-406.154 436.451 166.456 984.3 439.929 872.7 713.402 761.1 665.367 105.813 978.37 187.064c339.6 88.173 543.17 739.236 1253.57 684.886 458.69-34.48 642.35-754.453 819.67-992.904" stroke-width=".931"/><path d="M-575.892 505.449C-402.92 426.205 176.039 980.02 450.171 875.96c274.131-104.05 219.808-777.248 533.11-699.861C1323.83 260.227 1529.12 937.56 2242.24 882.02c459.92-35.24 637.11-782.798 807.6-1018.194" stroke-width=".936"/><path d="M-575.982 496.701C-399.656 415.959 185.652 975.73 460.412 879.23c274.791-96.53 214.179-787.618 527.81-714.096C1329.73 245.187 1536.7 948.83 2252.57 892.11c461.15-35.98 631.85-811.134 795.5-1043.474" stroke-width=".941"/><path d="M-576.072 487.983c179.62-82.301 771.307 483.497 1046.726 394.487 275.42-88.99 208.519-797.989 522.48-728.302C1335.6 230.147 1544.27 960.09 2262.9 902.18c462.41-36.76 626.61-839.48 783.44-1068.793" stroke-width=".947"/><path d="M-576.161 479.264C-393.217 395.466 204.818 967.19 480.896 885.73c276.078-81.46 202.889-808.349 517.149-742.527C1341.47 215.107 1551.82 971.33 2273.2 912.25c463.64-37.51 621.34-867.825 771.34-1094.083" stroke-width=".952"/><path d="M-576.221 470.546C-389.923 385.22 214.43 962.94 491.168 889c276.707-73.94 197.258-818.72 511.822-756.763 344.38 67.83 556.44 850.353 1280.55 790.073 464.86-38.26 616.09-896.191 759.23-1119.363" stroke-width=".957"/><path d="M-576.311 461.828c189.622-86.855 800.354 496.852 1077.72 430.432C778.775 825.87 693.038 63.15 1007.9 121.272c345.31 63.755 559.07 872.588 1285.94 811.138 466.09-39.01 610.85-924.536 747.17-1144.652" stroke-width=".962"/><path d="M-576.401 453.079C-383.455 364.697 233.626 954.37 511.651 895.5 789.676 836.63 697.62 55.989 1012.81 110.277c346.27 59.65 561.71 894.783 1291.33 832.173 467.35-39.76 605.58-952.882 735.07-1169.972" stroke-width=".967"/><path d="M-576.491 444.361c196.271-89.91 819.7 505.759 1098.384 454.399 278.684-51.35 180.339-849.9 495.857-799.419 347.2 55.546 564.34 917.019 1296.72 853.199 468.58-40.53 600.34-981.218 723-1195.252" stroke-width=".972"/><path d="M-576.581 435.642C-376.986 344.205 252.822 945.83 532.135 902.03c279.342-43.8 174.678-860.302 490.525-813.654 348.16 51.411 567.01 939.244 1302.14 874.234 469.81-41.29 595.07-1009.563 710.91-1220.541" stroke-width=".977"/><path d="M-576.671 426.924C-373.752 333.958 262.405 941.58 542.376 905.3 822.348 869.01 711.425 34.568 1027.57 77.411c349.12 47.307 569.68 961.449 1307.53 895.299 471.03-42.04 589.83-1037.909 698.84-1245.861" stroke-width=".983"/><path d="M-576.76 418.206C-370.518 323.712 271.988 937.32 552.618 908.56 833.248 879.8 716.067 26.868 1032.48 66.445c350.14 42.544 572.31 983.675 1312.93 916.325 472.25-42.78 584.55-1066.244 686.73-1271.14" stroke-width=".988"/><path d="M-576.85 409.487C-367.284 313.495 281.571 933.04 562.86 911.83c281.289-21.22 157.759-891.942 474.53-856.32 351.07 38.588 574.98 1005.88 1318.35 937.33 473.51-43.56 579.32-1094.59 674.67-1296.43" stroke-width=".993"/><path d="M-576.94 400.739c212.891-97.52 868.124 528.011 1150.042 514.321C855.02 901.37 725.171 12.877 1042.31 44.515c351.93 34.663 577.61 1028.105 1323.7 958.385 474.74-44.31 574.05-1122.926 662.57-1321.71" stroke-width=".998"/><path d="M-577 392.021C-360.785 292.973 300.797 924.5 583.373 918.33 865.95 912.16 729.783 5.896 1047.28 33.549 1400.11 64.288 1627.52 1083.89 2376.37 1013c475.97-45.06 568.81-1151.301 650.47-1347" stroke-width="1.003"/></g><defs><clipPath id="a"><path fill="#fff" d="M0 0h1920v1066H0z"/></clipPath></defs></svg>