<svg width="1920" height="1354" fill="none" xmlns="http://www.w3.org/2000/svg"><path d="M3139.93 990.249c-525.75 394.031-1040.32-293.038-1436.04-297.113-570.27-5.872-684.31 674.704-978.413 388.134-294.076-286.54-569.706-535.447-810.028-39.82-240.322 495.63-488.819 252.62-488.819 252.62" stroke="#fff" stroke-opacity=".1" stroke-width=".669" stroke-miterlimit="10"/><path d="M-573.46 1285.36c3.324-1.53 258.17 247.49 499.151-240.64 240.981-488.112 510.261-256.97 804.727 25.58 295.002 282.62 410.812-371.801 983.812-367.098 396.94 3.326 905.04 662.838 1423.93 271.828" stroke="#fff" stroke-opacity=".1" stroke-width=".674" stroke-miterlimit="10"/><path d="M-573.55 1276.64c6.648-3.06 267.843 251.93 509.483-228.66 241.64-480.586 504.571-267.211 799.396 11.36 295.901 278.65 413.441-349.576 989.201-346.071 398.17 2.577 899.77 634.491 1411.86 246.511" stroke="#fff" stroke-opacity=".1" stroke-width=".679" stroke-miterlimit="10"/><path d="M-573.64 1267.92c9.973-4.59 277.546 256.4 519.815-216.67 242.268-473.07 498.881-277.462 794.065-2.88 296.8 274.73 416.11-327.341 994.62-325.034 399.4 1.797 894.54 606.124 1399.77 221.224" stroke="#fff" stroke-opacity=".1" stroke-width=".684" stroke-miterlimit="10"/><path d="M-573.729 1259.17c13.296-6.08 287.218 260.83 530.145-204.69 242.928-465.515 493.192-287.702 788.736-17.07 297.728 270.8 418.748-305.146 1000.008-303.978 400.66 1.049 889.27 577.778 1387.67 195.939" stroke="#fff" stroke-opacity=".1" stroke-width=".689" stroke-miterlimit="10"/><path d="M-573.819 1250.45c16.62-7.61 296.891 265.3 540.477-192.7 243.586-457.999 486.963-297.324 783.405-31.31 298.057 267.48 421.377-282.911 1005.397-282.941 401.89.299 884.03 549.441 1375.6 170.652" stroke="#fff" stroke-opacity=".1" stroke-width=".694" stroke-miterlimit="10"/><path d="M-573.909 1241.73c19.974-9.13 306.564 269.76 550.809-180.72 244.245-450.474 481.183-307.445 778.104-45.53 298.866 263.64 424.046-260.686 1010.786-261.915 403.12-.449 878.76 521.095 1363.51 145.336" stroke="#fff" stroke-opacity=".1" stroke-width=".7" stroke-miterlimit="10"/><path d="M-573.999 1233.02c23.299-10.67 316.267 274.19 561.14-168.74 244.875-442.928 475.404-317.576 772.774-59.77C1059.59 1264.35 1186.6 766.029 1776.1 763.632c404.34-1.228 873.51 492.748 1351.43 120.05" stroke="#fff" stroke-opacity=".1" stroke-width=".705" stroke-miterlimit="10"/><path d="M-574.089 1224.3c26.623-12.2 325.94 278.65 571.473-156.75 245.532-435.413 469.653-327.706 767.443-74.005C1065.34 1249.58 1194.17 777.294 1786.43 773.728c405.6-1.977 868.27 464.412 1339.33 94.764" stroke="#fff" stroke-opacity=".1" stroke-width=".71" stroke-miterlimit="10"/><path d="M-574.149 1215.58c29.947-13.72 335.613 283.12 581.804-144.77 246.192-427.887 463.874-337.827 762.113-88.201 301.322 252.201 431.982-194.02 1026.962-198.784 406.82-2.726 863 436.065 1327.26 69.447" stroke="#fff" stroke-opacity=".1" stroke-width=".715" stroke-miterlimit="10"/><path d="M-574.238 1206.83c33.27-15.25 345.315 287.56 592.135-132.78 246.85-420.341 458.124-347.958 756.782-102.436 302.161 248.396 434.651-171.82 1032.381-177.753 408.05-3.475 857.76 407.729 1315.17 44.161" stroke="#fff" stroke-opacity=".1" stroke-width=".72" stroke-miterlimit="10"/><path d="M-574.328 1198.11c36.595-16.78 354.987 292.02 602.467-120.8C275.618 664.494 480.513 719.231 779.59 960.649c302.97 244.561 437.28-149.59 1037.77-156.691 409.28-4.224 852.49 379.382 1303.1 18.875" stroke="#fff" stroke-opacity=".1" stroke-width=".725" stroke-miterlimit="10"/><path d="M-574.418 1189.39c39.919-18.27 364.66 296.46 612.798-108.81 248.139-405.3 446.595-368.24 746.152-130.897 303.808 240.727 439.918-127.36 1043.158-135.658 410.51-5.004 847.26 351.015 1291-6.412" stroke="#fff" stroke-opacity=".1" stroke-width=".73" stroke-miterlimit="10"/><path d="M-574.508 1180.68c43.243-19.81 374.363 300.91 623.13-96.84C297.39 686.095 489.497 705.479 789.443 938.748 1094.09 1175.67 1232.02 833.588 1838 824.121c411.76-5.752 841.98 322.669 1278.9-31.728" stroke="#fff" stroke-opacity=".1" stroke-width=".736" stroke-miterlimit="10"/><path d="M-574.598 1171.96c46.567-21.33 384.036 305.38 633.462-84.85 249.426-390.229 435.125-388.491 735.49-159.327 305.516 233.087 445.216-82.93 1053.946-93.595 412.99-6.502 836.74 294.322 1266.83-57.014" stroke="#fff" stroke-opacity=".1" stroke-width=".741" stroke-miterlimit="10"/><path d="M-574.688 1163.21c49.891-22.86 393.709 309.81 643.794-72.86C319.19 707.667 498.48 691.698 799.265 916.787c306.355 229.253 447.885-60.699 1059.335-72.533 414.22-7.25 831.5 265.986 1254.73-82.3" stroke="#fff" stroke-opacity=".1" stroke-width=".746" stroke-miterlimit="10"/><path d="M-574.778 1154.49c53.216-24.39 403.382 314.28 654.125-60.88 250.744-375.158 423.656-408.803 724.83-187.788 307.193 225.418 450.513-38.499 1064.753-51.501 415.45-8.03 826.23 237.639 1242.67-107.587" stroke="#fff" stroke-opacity=".1" stroke-width=".751" stroke-miterlimit="10"/><path d="M-574.867 1145.77c56.539-25.91 413.084 318.75 664.456-48.89 251.373-367.642 417.906-418.934 719.499-202.023 308.062 221.583 453.152-16.269 1070.142-30.47 416.71-8.778 820.99 209.303 1230.57-132.902" stroke="#fff" stroke-opacity=".1" stroke-width=".756" stroke-miterlimit="10"/><path d="M-574.957 1137.05c59.863-27.44 422.757 323.18 674.788-36.91C351.862 740.053 512.017 671.055 814.03 883.921c308.931 217.749 455.821 5.962 1075.531-9.437 417.94-9.528 815.72 180.956 1218.5-158.189" stroke="#fff" stroke-opacity=".1" stroke-width=".761" stroke-miterlimit="10"/><path d="M-575.017 1128.33c63.217-28.94 432.43 327.65 685.12-24.92 252.69-352.571 406.466-439.245 708.867-230.454 309.8 213.914 458.45 28.192 1080.93 11.624 419.16-10.276 810.47 152.62 1206.4-183.475" stroke="#fff" stroke-opacity=".1" stroke-width=".766" stroke-miterlimit="10"/><path d="M-575.107 1119.62c66.542-30.47 442.133 332.07 695.451-12.95 253.349-345.045 400.777-449.396 703.537-244.68C1134.55 1072.04 1285 912.383 1910.2 894.647c420.39-11.055 805.2 124.273 1194.33-208.761" stroke="#fff" stroke-opacity=".1" stroke-width=".772" stroke-miterlimit="10"/><path d="M-575.197 1110.87c69.866-32 451.806 336.54 705.783-.96 253.978-337.5 395.057-459.557 698.207-258.915 311.567 206.215 463.757 72.623 1091.707 53.688 421.65-11.804 799.96 95.907 1182.23-234.077" stroke="#fff" stroke-opacity=".1" stroke-width=".777" stroke-miterlimit="10"/><path d="M-575.287 1102.15c73.19-33.53 461.479 341 716.115 11.03 254.637-329.984 389.367-469.718 692.876-273.12 312.436 202.35 466.386 94.853 1097.126 74.72 422.88-12.553 794.72 67.56 1170.14-259.364" stroke="#fff" stroke-opacity=".1" stroke-width=".782" stroke-miterlimit="10"/><path d="M-575.376 1093.43c76.513-35.05 471.18 345.44 726.446 23.01 255.265-322.429 383.647-479.899 687.545-287.346 313.335 198.516 469.055 117.054 1102.515 95.782 424.11-13.302 789.46 39.218 1158.07-284.649" stroke="#fff" stroke-opacity=".1" stroke-width=".787" stroke-miterlimit="10"/><path d="M-575.466 1084.71c79.838-36.58 480.853 349.91 736.778 35 255.924-314.913 377.956-490.089 682.244-301.611C1157.79 1012.75 1315.25 957.383 1951.46 934.913c425.34-14.081 784.22 10.876 1145.97-309.966" stroke="#fff" stroke-opacity=".1" stroke-width=".792" stroke-miterlimit="10"/><path d="M-575.556 1075.99c83.162-38.1 490.526 354.37 747.109 46.98C428.136 815.582 543.82 622.73 848.468 807.164 1163.57 997.949 1322.82 968.678 1961.77 945.01c426.59-14.83 778.94-17.467 1133.9-335.253" stroke="#fff" stroke-opacity=".1" stroke-width=".797" stroke-miterlimit="10"/><path d="M-575.646 1067.25c86.486-39.61 500.2 358.8 757.441 58.96 257.242-299.872 366.577-510.431 671.584-330.042C1169.41 983.089 1330.37 979.883 1972.07 955.046c427.81-15.579 773.7-45.809 1121.8-360.538" stroke="#fff" stroke-opacity=".1" stroke-width=".802" stroke-miterlimit="10"/><path d="M-575.736 1058.53c89.81-41.14 509.902 363.26 767.773 70.94C449.908 837.154 552.924 608.859 858.29 785.233c316.93 183.026 479.66 205.945 1124.08 179.94 429.04-16.328 768.43-74.151 1109.73-385.825" stroke="#fff" stroke-opacity=".1" stroke-width=".808" stroke-miterlimit="10"/><path d="M-575.796 1049.81c93.134-42.66 519.575 367.7 778.105 82.93 258.529-284.801 355.227-530.802 660.923-358.472C1181.06 953.428 1345.52 1002.44 1992.7 975.239c430.27-17.077 763.19-102.493 1097.64-411.141" stroke="#fff" stroke-opacity=".1" stroke-width=".813" stroke-miterlimit="10"/><path d="M-575.886 1041.09c96.459-44.19 529.248 372.16 788.436 94.91 259.189-277.245 349.538-540.983 655.593-372.698C1186.9 938.568 1353.07 1013.68 2003.03 985.306c431.53-17.856 757.95-130.866 1085.57-436.428" stroke="#fff" stroke-opacity=".1" stroke-width=".818" stroke-miterlimit="10"/><path d="M-575.975 1032.37c99.782-45.716 538.95 376.63 798.767 106.9S566.67 588.036 873.084 752.337C1192.73 923.738 1360.68 1024.94 2013.36 995.402c432.76-18.605 752.68-159.207 1073.47-461.713" stroke="#fff" stroke-opacity=".1" stroke-width=".823" stroke-miterlimit="10"/><path d="M-576.065 1023.65c103.136-47.242 548.623 381.07 809.099 118.89C493.51 880.326 571.251 581.115 877.995 741.401 1198.57 908.908 1368.22 1036.24 2023.66 1005.5c433.99-19.355 747.44-187.551 1061.37-487.001" stroke="#fff" stroke-opacity=".1" stroke-width=".828" stroke-miterlimit="10"/><path d="M-576.155 1014.91c106.46-48.779 558.296 385.52 819.431 130.86 261.134-254.658 332.557-571.605 639.63-415.364C1204.41 893.988 1375.8 1047.44 2033.97 1015.54c435.21-20.108 742.16-215.896 1049.3-512.321" stroke="#fff" stroke-opacity=".1" stroke-width=".833" stroke-miterlimit="10"/><path d="M-576.245 1006.19c109.785-50.275 567.969 389.99 829.762 142.85 261.794-247.143 326.898-581.826 634.301-429.599C1210.25 879.128 1383.35 1058.71 2044.27 1025.6c436.47-20.88 736.93-244.232 1037.2-537.6" stroke="#fff" stroke-opacity=".1" stroke-width=".839" stroke-miterlimit="10"/><path d="M-576.335 997.47c113.109-51.801 577.671 394.42 840.094 154.83 262.423-239.617 321.238-592.067 628.97-443.825C1216.09 864.237 1390.89 1069.97 2054.57 1035.7c437.7-21.63 731.66-272.578 1025.13-562.89" stroke="#fff" stroke-opacity=".1" stroke-width=".844" stroke-miterlimit="10"/><path d="M-576.425 988.751c116.433-53.329 587.344 398.889 850.426 166.819C537.082 923.498 589.579 553.283 897.64 697.51c324.32 151.867 500.83 383.73 1167.26 348.26 438.93-22.39 726.42-300.923 1013.04-588.18" stroke="#fff" stroke-opacity=".1" stroke-width=".849" stroke-miterlimit="10"/><path d="M-576.514 980.033c119.756-54.857 597.016 403.317 860.757 178.797 263.74-224.546 309.948-612.528 618.338-472.255C1227.83 834.517 1406.04 1092.5 2075.23 1055.86c440.16-23.13 721.18-329.259 1000.97-613.489" stroke="#fff" stroke-opacity=".1" stroke-width=".854" stroke-miterlimit="10"/><path d="M-576.574 971.285c123.08-56.385 606.72 407.785 871.088 190.755 264.37-217.03 304.288-622.779 613.009-486.491C1233.7 819.567 1413.62 1103.74 2085.53 1065.9c441.39-23.91 715.91-357.604 988.87-638.779" stroke="#fff" stroke-opacity=".1" stroke-width=".859" stroke-miterlimit="10"/><path d="M-576.664 962.566c126.405-57.912 616.392 412.254 881.42 202.744 265.028-209.515 298.658-633.029 607.678-500.726C1239.57 804.647 1421.2 1114.97 2095.87 1075.96c442.64-24.65 710.66-385.97 976.77-664.059" stroke="#fff" stroke-opacity=".1" stroke-width=".864" stroke-miterlimit="10"/><path d="M-576.754 953.848c129.729-59.441 626.065 416.682 891.752 214.722C580.685 966.611 607.996 525.3 917.345 653.619 1245.44 789.727 1428.77 1126.21 2106.17 1086.03c443.87-25.4 705.39-414.316 964.7-689.378" stroke="#fff" stroke-opacity=".1" stroke-width=".869" stroke-miterlimit="10"/><path d="M-576.844 945.129c133.053-60.968 635.768 421.151 902.084 226.711 266.345-194.414 287.368-653.551 597.016-529.157C1251.31 774.837 1436.32 1137.5 2116.47 1096.13c445.1-26.16 700.15-442.661 952.6-714.668" stroke="#fff" stroke-opacity=".1" stroke-width=".875" stroke-miterlimit="10"/><path d="M-576.934 936.411c136.377-62.466 645.44 425.609 912.415 238.689C602.456 988.212 617.22 511.279 927.197 631.718 1257.18 759.917 1443.9 1148.77 2126.83 1106.19c446.33-26.9 694.88-470.997 940.54-739.948" stroke="#fff" stroke-opacity=".1" stroke-width=".88" stroke-miterlimit="10"/><path d="M-577.023 927.663c139.701-63.995 655.113 430.047 922.746 250.677 267.633-179.372 276.108-674.102 586.386-557.617C1263.05 744.967 1451.47 1160 2137.13 1116.26c447.59-27.68 689.64-499.342 928.44-765.237" stroke="#fff" stroke-opacity=".1" stroke-width=".885" stroke-miterlimit="10"/><path d="M-577.113 918.944c143.055-65.522 664.786 434.506 933.078 262.656 268.292-171.82 270.478-684.373 581.055-571.843 331.9 120.26 522 561.483 1210.41 516.573 448.82-28.43 684.41-527.688 916.37-790.557" stroke="#fff" stroke-opacity=".1" stroke-width=".89" stroke-miterlimit="10"/><path d="M-577.203 910.226c146.379-67.05 674.488 438.944 943.41 274.644 268.921-164.3 264.848-694.653 575.724-586.078C1274.79 715.067 1466.6 1182.5 2157.74 1136.39c450.03-29.18 679.13-556.024 904.27-815.837" stroke="#fff" stroke-opacity=".1" stroke-width=".895" stroke-miterlimit="10"/><path d="M-577.293 901.508c149.703-68.579 684.162 443.412 953.741 286.622 269.58-156.78 259.219-704.954 570.395-600.274C1280.66 700.147 1474.14 1193.77 2168.04 1146.49c451.26-29.93 673.89-584.369 892.2-841.126" stroke="#fff" stroke-opacity=".1" stroke-width=".9" stroke-miterlimit="10"/><path d="M-577.383 892.789c153.028-70.106 693.834 447.871 964.073 298.611 270.239-149.23 253.589-715.264 565.064-614.509C1286.53 685.167 1481.69 1205.03 2178.34 1156.59c452.52-30.71 668.62-612.715 880.1-866.416" stroke="#fff" stroke-opacity=".1" stroke-width=".905" stroke-miterlimit="10"/><path d="M-577.443 884.071c156.352-71.634 703.537 452.309 974.405 310.599 270.867-141.71 247.958-725.575 559.763-628.744C1292.46 670.187 1489.33 1216.3 2188.73 1166.65c453.75-31.45 663.38-641.08 868.01-891.726" stroke="#fff" stroke-opacity=".1" stroke-width=".91" stroke-miterlimit="10"/><path d="M-577.533 875.323c159.676-73.133 713.21 456.767 984.737 322.577 271.526-134.19 242.328-735.905 554.432-642.97 336.694 100.247 535.234 672.57 1237.394 621.76 454.98-32.21 658.11-669.426 855.94-917.015" stroke="#fff" stroke-opacity=".1" stroke-width=".916" stroke-miterlimit="10"/><path d="M-577.622 866.604c162.999-74.66 722.882 461.236 995.067 334.566 272.186-126.64 236.699-746.216 549.103-657.175C1304.23 640.227 1504.45 1238.8 2209.33 1186.82c456.21-32.96 652.87-697.772 843.84-942.305" stroke="#fff" stroke-opacity=".1" stroke-width=".921" stroke-miterlimit="10"/><path d="M-577.712 857.886c166.323-76.188 732.585 465.664 1005.399 346.544 272.844-119.12 231.069-756.547 543.772-671.4C1310.1 625.247 1512 1250.06 2219.64 1196.88c457.46-33.73 647.62-726.107 831.76-967.615" stroke="#fff" stroke-opacity=".1" stroke-width=".926" stroke-miterlimit="10"/><path d="M-577.802 849.168C-408.154 771.451 164.456 1319.3 437.929 1207.7c273.473-111.6 225.438-766.887 538.441-685.636 339.6 88.173 543.17 739.236 1253.57 684.886 458.69-34.48 642.35-754.453 819.67-992.904" stroke="#fff" stroke-opacity=".1" stroke-width=".931" stroke-miterlimit="10"/><path d="M-577.892 840.449c172.972-79.244 751.931 474.571 1026.063 370.511 274.131-104.05 219.808-777.248 533.11-699.861 340.549 84.128 545.839 761.461 1258.959 705.921 459.92-35.24 637.11-782.798 807.6-1018.194" stroke="#fff" stroke-opacity=".1" stroke-width=".936" stroke-miterlimit="10"/><path d="M-577.982 831.701c176.326-80.742 761.634 479.029 1036.394 382.529 274.791-96.53 214.179-787.618 527.81-714.096C1327.73 580.187 1534.7 1283.83 2250.57 1227.11c461.15-35.98 631.85-811.134 795.5-1043.474" stroke="#fff" stroke-opacity=".1" stroke-width=".941" stroke-miterlimit="10"/><path d="M-578.072 822.983c179.62-82.301 771.307 483.497 1046.726 394.487 275.42-88.99 208.519-797.989 522.48-728.302C1333.6 565.147 1542.27 1295.09 2260.9 1237.18c462.41-36.76 626.61-839.48 783.44-1068.793" stroke="#fff" stroke-opacity=".1" stroke-width=".947" stroke-miterlimit="10"/><path d="M-578.161 814.264c182.944-83.798 780.979 487.926 1057.057 406.466 276.078-81.46 202.889-808.349 517.149-742.527C1339.47 550.107 1549.82 1306.33 2271.2 1247.25c463.64-37.51 621.34-867.825 771.34-1094.083" stroke="#fff" stroke-opacity=".1" stroke-width=".952" stroke-miterlimit="10"/><path d="M-578.221 805.546C-391.923 720.22 212.43 1297.94 489.168 1224c276.707-73.94 197.258-818.72 511.822-756.763 344.38 67.83 556.44 850.353 1280.55 790.073 464.86-38.26 616.09-896.191 759.23-1119.363" stroke="#fff" stroke-opacity=".1" stroke-width=".957" stroke-miterlimit="10"/><path d="M-578.311 796.828c189.622-86.855 800.354 496.852 1077.72 430.432 277.366-66.39 191.629-829.11 506.491-770.988 345.31 63.755 559.07 872.588 1285.94 811.138 466.09-39.01 610.85-924.536 747.17-1144.652" stroke="#fff" stroke-opacity=".1" stroke-width=".962" stroke-miterlimit="10"/><path d="M-578.401 788.079c192.946-88.382 810.027 501.291 1088.052 442.421 278.025-58.87 185.969-839.511 501.159-785.223 346.27 59.65 561.71 894.783 1291.33 832.173 467.35-39.76 605.58-952.882 735.07-1169.972" stroke="#fff" stroke-opacity=".1" stroke-width=".967" stroke-miterlimit="10"/><path d="M-578.491 779.361c196.271-89.91 819.7 505.759 1098.384 454.399 278.684-51.35 180.339-849.901 495.857-799.419 347.2 55.546 564.34 917.019 1296.72 853.199 468.58-40.53 600.34-981.218 723-1195.252" stroke="#fff" stroke-opacity=".1" stroke-width=".972" stroke-miterlimit="10"/><path d="M-578.581 770.642c199.595-91.437 829.403 510.188 1108.716 466.388 279.342-43.8 174.678-860.302 490.525-813.654 348.16 51.411 567.01 939.244 1302.14 874.234 469.81-41.29 595.07-1009.563 710.91-1220.541" stroke="#fff" stroke-opacity=".1" stroke-width=".977" stroke-miterlimit="10"/><path d="M-578.671 761.924c202.919-92.966 839.076 514.656 1119.047 478.376 279.972-36.29 169.049-870.732 485.194-827.889 349.12 47.307 569.68 961.449 1307.53 895.299 471.03-42.04 589.83-1037.909 698.84-1245.861" stroke="#fff" stroke-opacity=".1" stroke-width=".983" stroke-miterlimit="10"/><path d="M-578.76 753.206c206.242-94.494 848.748 519.114 1129.378 490.354 280.63-28.76 163.449-881.692 479.862-842.115 350.14 42.544 572.31 983.675 1312.93 916.325 472.25-42.78 584.55-1066.244 686.73-1271.14" stroke="#fff" stroke-opacity=".1" stroke-width=".988" stroke-miterlimit="10"/><path d="M-578.85 744.487c209.566-95.992 858.421 523.553 1139.71 502.343 281.289-21.22 157.759-891.942 474.53-856.32 351.07 38.588 574.98 1005.88 1318.35 937.33 473.51-43.56 579.32-1094.59 674.67-1296.43" stroke="#fff" stroke-opacity=".1" stroke-width=".993" stroke-miterlimit="10"/><path d="M-578.94 735.739c212.891-97.52 868.124 528.011 1150.042 514.321 281.918-13.69 152.069-902.183 469.208-870.545 351.93 34.663 577.61 1028.105 1323.7 958.385 474.74-44.31 574.05-1122.926 662.57-1321.71" stroke="#fff" stroke-opacity=".1" stroke-width=".998" stroke-miterlimit="10"/><path d="M-579 727.021c216.215-99.048 877.797 532.479 1160.373 526.309 282.577-6.17 146.41-912.434 463.907-884.781C1398.11 399.288 1625.52 1418.89 2374.37 1348c475.97-45.06 568.81-1151.301 650.47-1347" stroke="#fff" stroke-opacity=".1" stroke-width="1.003" stroke-miterlimit="10"/></svg>