<svg width="156" height="189" fill="none" xmlns="http://www.w3.org/2000/svg"><g clip-path="url(#a)"><path d="m145.738 70.687-21.87-28.645c-2.306-3.023-5.853-4.792-9.608-4.792H80.463c-3.754 0-7.302 1.769-9.608 4.792l-21.87 28.645c1.515 22.915 12.322 42.024 30.121 49.747v-.006c5.544 2.396 11.66 3.737 18.256 3.737s12.712-1.341 18.255-3.743v.006c17.799-7.717 28.6-26.826 30.121-49.74ZM79.106 86.916c-3.359 0-6.085-2.781-6.085-6.209 0-3.426 2.726-6.208 6.085-6.208 3.36 0 6.086 2.782 6.086 6.209 0 3.427-2.727 6.208-6.086 6.208Zm36.511 0c-3.359 0-6.085-2.781-6.085-6.209 0-3.426 2.726-6.208 6.085-6.208s6.085 2.782 6.085 6.209c0 3.427-2.726 6.208-6.085 6.208ZM48.681 60.978V31.04c0-13.714 10.898-24.833 24.34-24.833h48.681c13.442 0 24.341 11.12 24.341 24.833v29.937L128.67 38.23c-3.457-4.538-8.775-7.189-14.41-7.189H80.457c-5.634 0-10.953 2.651-14.41 7.19L48.682 60.977ZM168.637 177.4l-2.057-9.653c-1.649-9.232-8.13-16.639-16.759-19.271l-28.819-10.715-5.233 4.619a27.88 27.88 0 0 1-18.505 7.046 27.758 27.758 0 0 1-18.444-7.022l-5.184-4.569-28.54 10.579c-8.804 2.701-15.303 10.107-16.946 19.345l-1.801 10.057c-1.364 7.624 4.375 14.639 11.969 14.639H156.74c7.765 0 13.546-7.313 11.897-15.055Zm-22.594-3.569c0 3.427-2.727 6.208-6.086 6.208h-18.255c-3.359 0-6.085-2.781-6.085-6.208v-6.209c0-3.427 2.726-6.208 6.085-6.208h18.255c3.359 0 6.086 2.781 6.086 6.208v6.209Zm-48.681-43.458c6.529 0 12.632-1.149 18.255-3.222v7.152l-3.834 3.389c-8.02 7.109-20.957 7.127-28.97.025l-3.707-3.265v-7.295c5.623 2.067 11.726 3.216 18.256 3.216Zm24.34 37.249h18.255v6.209h-18.255v-6.209Z" fill="url(#b)"/></g><defs><linearGradient id="b" x1="-11" y1="29" x2="134" y2="192" gradientUnits="userSpaceOnUse"><stop stop-color="#414141"/><stop offset="1" stop-color="#262626"/></linearGradient><clipPath id="a"><path fill="#fff" d="M0 0h156v189H0z"/></clipPath></defs></svg>