<svg width="183" height="189" fill="none" xmlns="http://www.w3.org/2000/svg"><g clip-path="url(#a)"><path fill-rule="evenodd" clip-rule="evenodd" d="M171.329 75.432C171.329 32.97 137.706 0 96.373 0 55.04 0 21.416 32.97 21.416 73.5 8.963 79.769 0 91.308 0 105v21c0 8.354 3.385 16.366 9.409 22.274 6.024 5.907 14.195 9.226 22.715 9.226h10.708c2.84 0 5.564-1.106 7.572-3.075A10.4 10.4 0 0 0 53.54 147V84c0-2.785-1.128-5.456-3.136-7.425a10.817 10.817 0 0 0-7.572-3.075c0-13.924 5.641-27.277 15.682-37.123C68.554 26.53 82.173 21 96.373 21c14.2 0 27.818 5.531 37.859 15.377 10.04 9.846 15.681 23.2 15.681 37.123-2.84 0-5.563 1.106-7.572 3.075A10.398 10.398 0 0 0 139.205 84v63a10.4 10.4 0 0 0 3.136 7.425 10.819 10.819 0 0 0 7.572 3.075V168h-27.755c-2.206-6.1-8.095-10.5-15.077-10.5H85.665c-4.26 0-8.346 1.659-11.358 4.613-3.012 2.954-4.704 6.96-4.704 11.137 0 4.177 1.692 8.183 4.704 11.137C77.32 187.341 81.405 189 85.665 189h64.248c5.68 0 11.127-2.212 15.144-6.151 4.016-3.938 6.272-9.279 6.272-14.849v-12.421c6.251-2.154 11.667-6.155 15.502-11.453A31.005 31.005 0 0 0 192.746 126v-21a30.98 30.98 0 0 0-5.914-18.123c-3.836-5.296-9.252-9.294-15.503-11.445L-74.957 651 171.33 75.432Z" fill="url(#b)"/></g><defs><linearGradient id="b" x1="34.651" y1="40.576" x2="153.844" y2="193.825" gradientUnits="userSpaceOnUse"><stop stop-color="#3C3C3C"/><stop offset="1" stop-color="#262626"/></linearGradient><clipPath id="a"><path fill="#fff" d="M0 0h183v189H0z"/></clipPath></defs></svg>