<svg width="24" height="24" fill="none" xmlns="http://www.w3.org/2000/svg"><g clip-path="url(#a)"><path d="M12.001 0C8.742 0 8.333.014 7.053.073 5.776.13 4.903.333 4.141.63a5.876 5.876 0 0 0-2.126 1.384A5.89 5.89 0 0 0 .63 4.139c-.298.764-.5 1.636-.558 2.913C.015 8.332 0 8.742 0 12c0 3.26.015 3.667.073 4.947.058 1.277.26 2.15.557 2.912a5.88 5.88 0 0 0 1.384 2.126 5.878 5.878 0 0 0 2.125 1.385c.764.297 1.636.5 2.913.558C8.332 23.986 8.741 24 12 24c3.259 0 3.667-.014 4.947-.072 1.277-.059 2.15-.261 2.914-.558a5.874 5.874 0 0 0 2.124-1.385 5.89 5.89 0 0 0 1.385-2.125c.295-.764.498-1.636.558-2.913.057-1.28.072-1.688.072-4.947 0-3.259-.015-3.668-.072-4.948-.06-1.277-.263-2.15-.558-2.912a5.89 5.89 0 0 0-1.385-2.126A5.868 5.868 0 0 0 19.86.63c-.765-.297-1.637-.499-2.915-.557C15.665.014 15.257 0 11.997 0h.004Zm-1.076 2.163H12c3.204 0 3.584.011 4.85.069 1.17.053 1.804.249 2.227.413.56.217.96.477 1.38.897.42.42.68.82.897 1.38.165.423.36 1.058.413 2.228.058 1.265.07 1.645.07 4.847 0 3.203-.012 3.583-.07 4.848-.053 1.17-.248 1.805-.413 2.228-.217.56-.478.958-.898 1.378-.42.42-.819.68-1.379.897-.422.165-1.058.36-2.228.414-1.265.058-1.645.07-4.849.07s-3.584-.012-4.849-.07c-1.17-.054-1.805-.25-2.228-.414a3.717 3.717 0 0 1-1.38-.897 3.72 3.72 0 0 1-.898-1.38c-.164-.422-.36-1.057-.413-2.227-.058-1.265-.07-1.645-.07-4.85 0-3.204.012-3.582.07-4.847.053-1.17.249-1.805.413-2.228.217-.56.478-.96.898-1.38.42-.42.82-.68 1.38-.898.423-.165 1.058-.36 2.228-.414 1.107-.05 1.536-.065 3.773-.067v.003Zm7.482 1.992a1.44 1.44 0 1 0 0 2.88 1.44 1.44 0 0 0 0-2.88ZM12 5.838a6.163 6.163 0 1 0 0 12.325 6.163 6.163 0 0 0 0-12.325Zm0 2.162a4 4 0 1 1 0 8 4 4 0 0 1 0-8Z" fill="#2EECC5"/></g><defs><clipPath id="a"><path fill="#fff" d="M0 0h24v24H0z"/></clipPath></defs></svg>